<?xml version="1.0" encoding="utf-8"?>
<!-- Generator: Adobe Illustrator 23.0.0, SVG Export Plug-In . SVG Version: 6.00 Build 0)  -->
<svg version="1.1" id="图层_1" xmlns="http://www.w3.org/2000/svg" xmlns:xlink="http://www.w3.org/1999/xlink" x="0px" y="0px"
	 viewBox="0 0 150 162.9" style="enable-background:new 0 0 150 162.9;" xml:space="preserve">
<style type="text/css">
	.st0{fill:url(#SVGID_1_);}
	.st1{fill:url(#SVGID_2_);}
	.st2{fill:url(#SVGID_3_);}
	.st3{opacity:0.5;fill:#FFFFFF;}
	.st4{fill:url(#SVGID_4_);}
	.st5{fill:#FF9304;}
	.st6{opacity:0.1;fill:#FFFFFF;}
	.st7{fill:#FFE016;}
	.st8{opacity:0.5;fill:#D42F55;}
	.st9{opacity:0.8;fill:#D42F55;}
	.st10{opacity:0.1;fill:#D42F55;}
	.st11{opacity:0.2;fill:#D42F55;}
	.st12{fill:url(#SVGID_5_);}
	.st13{fill:url(#SVGID_6_);}
	.st14{fill:url(#SVGID_7_);}
	.st15{fill:url(#SVGID_8_);}
	.st16{fill:url(#SVGID_9_);}
	.st17{fill:url(#SVGID_10_);}
	.st18{fill:url(#SVGID_11_);}
	.st19{fill:url(#SVGID_12_);}
	.st20{fill:#FFFFFF;}
	.st21{fill:url(#SVGID_13_);}
	.st22{fill:url(#SVGID_14_);}
	.st23{fill:url(#SVGID_15_);}
	.st24{fill:url(#SVGID_16_);}
	.st25{fill:#FF6B04;}
	.st26{opacity:0.7;fill:#DE376D;}
	.st27{fill:url(#SVGID_17_);}
	.st28{fill:url(#SVGID_18_);}
	.st29{fill:url(#SVGID_19_);}
	.st30{fill:url(#SVGID_20_);}
</style>
<g>
	<g>
		
			<linearGradient id="SVGID_1_" gradientUnits="userSpaceOnUse" x1="-542.7391" y1="-7.0106" x2="-542.7391" y2="-91.515" gradientTransform="matrix(-0.3929 0.9196 -0.9196 -0.3929 -154.1697 580.561)">
			<stop  offset="5.027930e-02" style="stop-color:#FF3F00"/>
			<stop  offset="1" style="stop-color:#FF6A03"/>
		</linearGradient>
		<path class="st0" d="M92.4,128.6c-5.3-2.3-10.1-5.2-14.1-8.5c-1.3-1.1-2.5-2.2-3.7-3.4c0,0,0,0,0,0c-2.4-2.4-4.4-5-6.1-7.7
			c0,0,0-0.1,0-0.1c-0.7-1.2-1.4-2.4-1.9-3.5c0,0,0-0.1-0.1-0.1c-0.8-1.7-1.4-3.4-1.9-5.1c0-0.1,0-0.1,0-0.2c0,0,0,0,0,0
			c-1.3-5.1-1.2-10.2,0.6-14.9l0-0.1c0.1-0.2,0.2-0.4,0.3-0.6c0.1-0.3,0.3-0.7,0.4-1c0.1-0.2,0.2-0.3,0.3-0.5
			c0.1-0.1,0.2-0.3,0.2-0.4c0.1-0.2,0.2-0.3,0.3-0.5c0.1-0.1,0.1-0.2,0.2-0.3c0.9-1.4,1.9-2.8,3.1-4c0.8-0.8,1.6-1.5,2.5-2.3
			c10.1-8,27.4-9.3,43.9-2.3c2.8,1.2,5.5,2.6,8,4.2c12.3,7.6,20,19,20.7,29.8c0.2,2.4-0.1,4.8-0.6,7.1c0,0.1,0,0.2-0.1,0.2
			c0,0.1,0,0.1,0,0.2c-0.2,0.9-0.6,1.8-0.9,2.7l-0.1,0.2c-0.1,0.2-0.1,0.3-0.2,0.5c-3.4,7.4-10.7,12.4-19.7,14.3
			c-0.2,0-0.3,0.1-0.4,0.1c-0.1,0-0.2,0-0.2,0C113.7,134.1,102.9,133.1,92.4,128.6z"/>
		
			<linearGradient id="SVGID_2_" gradientUnits="userSpaceOnUse" x1="-547.1612" y1="-6.0761" x2="-547.1612" y2="-92.4889" gradientTransform="matrix(-0.3929 0.9196 -0.9196 -0.3929 -154.1697 580.561)">
			<stop  offset="5.027930e-02" style="stop-color:#FF3F00"/>
			<stop  offset="1" style="stop-color:#FF6A03"/>
		</linearGradient>
		<path class="st1" d="M64.8,86.2l0.4-1.2l0-0.1l2.1-6.2l0-0.1l0.9-2.8l0,0l0.6-1.8l0-0.1l0.2,0.1l0.7,0.3l1.1,0.5l1.5,0.7L117.7,95
			l27.3,11.9l1.8,0.8l1.3,0.6l0.1,0l-1.9,3.5c0,0,0,0,0,0l-3.2,6l0,0l-0.5-0.2l-0.2-0.1l-0.7-0.3l-0.4-0.2l-0.1,0l-19.5-7.9
			l-51.9-21L67,87.1L66.8,87l-0.1,0l-1.1-0.4l-0.5-0.2L64.8,86.2z"/>
		
			<linearGradient id="SVGID_3_" gradientUnits="userSpaceOnUse" x1="-552.9465" y1="-6.0747" x2="-552.9465" y2="-92.489" gradientTransform="matrix(-0.3929 0.9196 -0.9196 -0.3929 -154.1697 580.561)">
			<stop  offset="0" style="stop-color:#FFA900"/>
			<stop  offset="1" style="stop-color:#FF9600"/>
		</linearGradient>
		<path class="st2" d="M96.2,119.8c-5.5-2.3-10.4-5.4-14.5-8.8c0,0,0,0,0,0c0,0,0,0,0,0c0,0,0,0,0,0c-0.1-0.1-0.6-0.5-1.2-1.1
			c-0.3-0.3-0.6-0.6-0.9-0.8c-2.9-2.8-5.4-5.8-7.4-8.9c-0.3-0.4-0.6-0.9-0.8-1.3C69,95,67.6,91,67,87.1c-0.3-1.9-0.3-3.7-0.1-5.5
			c0-0.5,0.1-1,0.2-1.5l0,0c0.1-0.4,0.1-0.8,0.2-1.2c0-0.1,0-0.1,0-0.2c0.3-1.4,0.7-2.8,1.3-4.1c0.1-0.2,0.2-0.4,0.3-0.6l0-0.1
			c1.3-2.6,3-5,5.2-7c0.3-0.3,0.6-0.5,0.8-0.8c0.1-0.1,0.1-0.1,0.2-0.2c2.6-2.2,5.7-3.9,9.1-5.2c0,0,0,0,0.1,0c2.7-1,5.6-1.6,8.7-2
			l0,0c8.5-1,18.2,0.3,27.6,4.3c6.9,2.9,12.8,6.9,17.5,11.5c0,0,0.2,0.2,0.5,0.5c7.4,7.4,11.6,16.4,11.4,24.9c0,0,0,0,0,0.1
			c0,0.5,0,1-0.1,1.5c0,0.3-0.1,0.5-0.1,0.8c-0.1,0.5-0.1,0.9-0.2,1.4c0,0.3-0.1,0.5-0.2,0.8c-0.3,1.3-0.7,2.6-1.3,3.9
			c-0.5,1.2-1.2,2.4-1.9,3.5c0,0,0,0,0,0c-0.6,0.9-1.3,1.8-2,2.6c0,0,0,0.1-0.1,0.1c-0.3,0.3-0.6,0.6-0.9,0.9c0,0,0,0-0.1,0.1
			c-0.6,0.6-1.2,1.1-1.8,1.6C131.1,125.6,113.3,127.1,96.2,119.8z"/>
		<path class="st3" d="M104.4,59.1c-3,0.1-0.8,23.7-1.6,33.9c-0.7,10.1-9.9,22.6-9.2,24.3c0.7,1.7,19,7.9,29.7,6.4
			c10.6-1.5,1.7-5.1-0.3-12c-2-6.9-0.4-31.1,2.1-35.4c2.5-4.2,5.5-4.7,5.9-6.5C131.4,68.1,118.9,58.5,104.4,59.1z"/>
		
			<linearGradient id="SVGID_4_" gradientUnits="userSpaceOnUse" x1="-553.2255" y1="-20.8564" x2="-553.2255" y2="-77.7078" gradientTransform="matrix(-0.3929 0.9196 -0.9196 -0.3929 -154.1697 580.561)">
			<stop  offset="0" style="stop-color:#FF7C04"/>
			<stop  offset="1" style="stop-color:#D92000"/>
		</linearGradient>
		<path class="st4" d="M100.6,109.6c-13.8-5.9-21.9-18.2-18.8-28.2c0.1-0.5,0.3-1,0.5-1.4c4.4-10.2,19.6-13.5,34.1-7.4
			c14.4,6.1,22.6,19.4,18.2,29.6c-0.2,0.5-0.4,0.9-0.7,1.4C128.9,112.8,114.4,115.5,100.6,109.6z"/>
		<path class="st5" d="M100.6,109.6c-13.8-5.9-21.9-18.2-18.8-28.2c5.1-9.1,19.6-11.9,33.4-6c13.8,5.9,21.8,18.2,18.7,28.2
			C128.9,112.8,114.4,115.5,100.6,109.6z"/>
		<path class="st6" d="M113.9,61c8.9,2.4-8.3,13.1-13.7-2C100.2,59.1,106.7,59.1,113.9,61z"/>
		<path class="st3" d="M81.6,111c-0.1-0.1-0.6-0.5-1.2-1.1c-1.8-1.7-5.3-5.1-8.3-9.7c-2.5-3.8-4.7-8.3-5.3-13.2
			c-0.2-1.7-0.2-3.4-0.1-5.1c0-0.4,0.1-0.8,0.2-1.2c0,0,0,0,0-0.1c0.1-0.6,0.2-1.2,0.4-1.8c0-0.1,0-0.2,0.1-0.3c0-0.1,0-0.2,0.1-0.2
			c0.3-0.9,0.5-1.7,0.9-2.5l0,0c0.3-0.7,0.5-1.3,0.8-1.9c1.6-3.4,3.7-5.9,5.8-7.8c0.1-0.1,0.1-0.1,0.2-0.2c4.2-3.7,8.4-5,9.1-5.2
			c0,0,0,0,0.1,0c0,0,0.1,0,0.1,0c1-0.3-4.2,1.9-8.8,6.9c-1.8,1.9-3.5,4.3-4.7,7.1c-0.4,0.9-0.7,1.9-1,2.9c-0.1,0.3-0.1,0.5-0.2,0.8
			c-0.7,3.3-0.6,6.7-0.1,9.8C71.8,100.3,80.9,110.2,81.6,111z"/>
		<path class="st7" d="M94.9,70.4c0,0-19.1,8.2-11.3,24.4C83.5,94.8,73.1,76.2,94.9,70.4z"/>
		<path class="st8" d="M124.5,77c-4.7-1.3,8,8,7.3,21.3c-0.6,13.3-23.4,13.7-23.4,13.7s19.7,5.7,26.5-10.2
			C140.3,89.5,124.5,77,124.5,77z"/>
		<path class="st9" d="M122.9,132.2c0.1,0,0.3-0.1,0.4-0.1C123.2,132.2,123,132.2,122.9,132.2z"/>
		<path class="st10" d="M123.3,132.1c1.1-0.3,3.8-1.1,7-2.9c0,0,0,0,0,0c3.8-2.2,8.4-5.8,12.1-11.7c0.1-0.1,0.1-0.2,0.2-0.2
			c0.5-0.9,1.1-1.8,1.5-2.8c0.1-0.1,0.1-0.2,0.1-0.3c0.1-0.1,0.1-0.2,0.2-0.4c0.7-1.5,1.4-3.2,2-5c0.1-0.4,0.3-0.8,0.4-1.2
			c2.7-9.5,0.7-17.6-2-23.4c-2.3-4.8-5.1-8.1-6.2-9.2c7.4,7.4,11.6,16.4,11.4,24.9c0,0,0,0,0,0.1c0,0.5,0,1-0.1,1.5
			c0,0.2,0,0.4,0,0.5c0,0.1,0,0.2,0,0.2c-0.1,0.5-0.1,0.9-0.2,1.4c0,0.3-0.1,0.5-0.2,0.8c-0.3,1.3-0.7,2.6-1.3,3.9
			c-0.5,1.2-1.2,2.4-1.9,3.5c0,0,0,0,0,0l-3.2,6l0,0C139.6,125.2,132.4,130.2,123.3,132.1z"/>
		<path class="st11" d="M68.5,108.9c-0.7-1.2-1.4-2.4-1.9-3.5c0,0,0-0.1-0.1-0.1c-0.9-1.8-1.6-3.6-1.9-5.1c0-0.1,0-0.1,0-0.2
			c0,0,0,0,0,0c-1.3-5.1-1.2-10.2,0.6-14.9l0-0.1l2.1-6.2c0.3-1.4,0.7-2.8,1.3-4.1c0.1-0.2,0.2-0.4,0.3-0.6l0-0.1l0,0
			c1.3-2.6,3-5,5.2-7c0.3-0.3,0.6-0.5,0.8-0.8c0.1-0.1,0.1-0.1,0.2-0.2c4.2-3.7,8.4-5,9.1-5.2c0,0,0,0,0.1,0c2.7-1,5.6-1.6,8.7-2
			c-0.4,0.1-9.8,2.4-17.4,8.9c-2.2,1.8-4.2,4-5.8,6.6c-1.1,1.8-2.1,3.7-2.7,5.9l0,0c-0.1,0.2-0.1,0.4-0.2,0.6c0,0,0,0,0,0.1
			c-0.2,0.6-0.3,1.1-0.4,1.7c0,0.1-0.1,0.2-0.1,0.3c-0.3,1.3-0.6,2.6-0.7,3.9c-1.6,10.7,1.4,18.9,2.5,21.6l0,0
			C68.3,108.5,68.4,108.7,68.5,108.9z"/>
	</g>
	<g>
		
			<linearGradient id="SVGID_5_" gradientUnits="userSpaceOnUse" x1="-579.3549" y1="65.4813" x2="-579.3549" y2="-6.5275" gradientTransform="matrix(-0.3929 0.9196 -0.9196 -0.3929 -154.1697 580.561)">
			<stop  offset="5.027930e-02" style="stop-color:#FF3F00"/>
			<stop  offset="1" style="stop-color:#FF6A03"/>
		</linearGradient>
		<path class="st12" d="M36.2,59.9c-4.5-1.9-8.6-4.4-12-7.3C23,51.7,22,50.7,21,49.7c0,0,0,0,0,0c-2-2.1-3.8-4.3-5.2-6.5
			c0,0,0,0,0-0.1c-0.6-1-1.2-2-1.6-3c0,0,0-0.1-0.1-0.1c-0.7-1.4-1.2-2.9-1.6-4.4c0,0,0-0.1,0-0.1c0,0,0,0,0,0
			c-1.1-4.3-1-8.7,0.5-12.7l0-0.1c0.1-0.2,0.1-0.4,0.2-0.5c0.1-0.3,0.2-0.6,0.4-0.8c0.1-0.1,0.1-0.3,0.2-0.4
			c0.1-0.1,0.1-0.3,0.2-0.4c0.1-0.1,0.2-0.3,0.2-0.4c0-0.1,0.1-0.2,0.2-0.3c0.7-1.2,1.6-2.4,2.6-3.4c0.7-0.7,1.4-1.3,2.1-1.9
			c8.6-6.8,23.3-7.9,37.4-2c2.4,1,4.7,2.2,6.8,3.5C73.8,22.5,80.4,32.2,81,41.4c0.1,2,0,4.1-0.5,6c0,0.1,0,0.1-0.1,0.2
			c0,0,0,0.1,0,0.1c-0.2,0.8-0.5,1.6-0.8,2.3l-0.1,0.2c-0.1,0.1-0.1,0.3-0.2,0.4c-2.9,6.3-9.1,10.5-16.8,12.2
			c-0.1,0-0.3,0.1-0.3,0.1c-0.1,0-0.1,0-0.1,0C54.3,64.6,45.1,63.7,36.2,59.9z"/>
		
			<linearGradient id="SVGID_6_" gradientUnits="userSpaceOnUse" x1="-583.123" y1="66.2777" x2="-583.123" y2="-7.3575" gradientTransform="matrix(-0.3929 0.9196 -0.9196 -0.3929 -154.1697 580.561)">
			<stop  offset="5.027930e-02" style="stop-color:#FF3F00"/>
			<stop  offset="1" style="stop-color:#FF6A03"/>
		</linearGradient>
		<path class="st13" d="M12.6,23.7l0.3-1l0-0.1l1.8-5.3l0-0.1l0.8-2.4l0,0l0.5-1.6l0-0.1l0.1,0.1l0.6,0.3l1,0.4l1.3,0.6l38.6,16.8
			L81,41.4l1.5,0.7l1.1,0.5l0.1,0l-1.6,3c0,0,0,0,0,0l-2.8,5.1l0,0l-0.5-0.2l-0.1-0.1L78,50.2l-0.3-0.1l-0.1,0l-16.6-6.7L16.8,25.4
			l-2.3-0.9l-0.2-0.1l-0.1,0L13.3,24l-0.4-0.2L12.6,23.7z"/>
		
			<linearGradient id="SVGID_7_" gradientUnits="userSpaceOnUse" x1="-588.0529" y1="66.2788" x2="-588.0529" y2="-7.3575" gradientTransform="matrix(-0.3929 0.9196 -0.9196 -0.3929 -154.1697 580.561)">
			<stop  offset="0" style="stop-color:#FFA900"/>
			<stop  offset="1" style="stop-color:#FF9600"/>
		</linearGradient>
		<path class="st14" d="M39.4,52.4c-4.7-2-8.8-4.6-12.4-7.5c0,0,0,0,0,0c0,0,0,0,0,0c0,0,0,0,0,0c-0.1-0.1-0.5-0.4-1.1-0.9
			c-0.3-0.2-0.5-0.5-0.8-0.7c-2.5-2.4-4.6-4.9-6.3-7.6c-0.2-0.4-0.5-0.7-0.7-1.1c-1.9-3.3-3.1-6.7-3.6-10c-0.2-1.6-0.3-3.2-0.1-4.7
			c0-0.4,0.1-0.8,0.1-1.3l0,0c0.1-0.4,0.1-0.7,0.2-1c0,0,0-0.1,0-0.1c0.3-1.2,0.6-2.4,1.1-3.5c0.1-0.2,0.2-0.4,0.2-0.5l0-0.1
			c1.1-2.3,2.6-4.2,4.4-5.9C20.8,7,21,6.8,21.3,6.5c0,0,0.1-0.1,0.1-0.1c2.2-1.9,4.8-3.3,7.8-4.4c0,0,0,0,0.1,0
			c2.3-0.8,4.8-1.4,7.4-1.7l0,0C43.9-0.6,52.1,0.5,60.2,4c5.9,2.5,10.9,5.9,14.9,9.8c0,0,0.2,0.1,0.4,0.4c6.3,6.3,9.9,14,9.7,21.2
			c0,0,0,0,0,0.1c0,0.4,0,0.9-0.1,1.3c0,0.2,0,0.4-0.1,0.7c0,0.4-0.1,0.8-0.2,1.2c0,0.2-0.1,0.4-0.1,0.7c-0.3,1.1-0.6,2.3-1.1,3.3
			c-0.4,1-1,2-1.6,3c0,0,0,0,0,0c-0.5,0.8-1.1,1.5-1.7,2.2c0,0,0,0.1-0.1,0.1c-0.2,0.3-0.5,0.5-0.8,0.8c0,0,0,0,0,0
			c-0.5,0.5-1,1-1.5,1.4C69.2,57.3,53.9,58.6,39.4,52.4z"/>
		<path class="st3" d="M46.4,0.7c-2.6,0.1-0.7,20.2-1.3,28.9c-0.6,8.6-8.4,19.2-7.8,20.7c0.6,1.5,16.2,6.7,25.3,5.5
			c9-1.3,1.4-4.4-0.3-10.2c-1.7-5.9-0.3-26.5,1.8-30.1c2.1-3.6,4.7-4,5.1-5.5C69.4,8.3,58.7,0.1,46.4,0.7z"/>
		
			<linearGradient id="SVGID_8_" gradientUnits="userSpaceOnUse" x1="-588.2906" y1="53.6829" x2="-588.2906" y2="5.238" gradientTransform="matrix(-0.3929 0.9196 -0.9196 -0.3929 -154.1697 580.561)">
			<stop  offset="0" style="stop-color:#FF7C04"/>
			<stop  offset="1" style="stop-color:#D92000"/>
		</linearGradient>
		<path class="st15" d="M43.1,43.7c-11.7-5-18.6-15.5-16-24c0.1-0.4,0.3-0.8,0.4-1.2C31.3,9.8,44.3,7,56.6,12.2
			c12.3,5.2,19.3,16.5,15.5,25.2c-0.2,0.4-0.4,0.8-0.6,1.2C67.2,46.4,54.8,48.7,43.1,43.7z"/>
		<path class="st5" d="M43.1,43.7c-11.7-5-18.6-15.5-16-24c4.3-7.8,16.7-10.1,28.5-5.1c11.7,5,18.6,15.5,16,24
			C67.2,46.4,54.8,48.7,43.1,43.7z"/>
		<path class="st6" d="M54.5,2.3c7.6,2-7.1,11.2-11.7-1.7C42.8,0.6,48.4,0.7,54.5,2.3z"/>
		<path class="st3" d="M26.9,44.9c-0.1-0.1-0.5-0.4-1.1-0.9c-1.6-1.4-4.5-4.4-7.1-8.3c-2.1-3.2-4-7.1-4.5-11.3
			c-0.2-1.4-0.2-2.9,0-4.4c0-0.3,0.1-0.7,0.1-1c0,0,0,0,0,0c0.1-0.5,0.2-1,0.3-1.6c0-0.1,0-0.2,0.1-0.3c0-0.1,0-0.1,0.1-0.2
			c0.2-0.7,0.5-1.5,0.7-2.2l0,0c0.2-0.6,0.5-1.1,0.7-1.6c1.4-2.9,3.2-5,5-6.7c0,0,0.1-0.1,0.1-0.1C25,3.2,28.6,2.2,29.2,2
			c0,0,0,0,0.1,0c0,0,0,0,0,0c0.8-0.3-3.6,1.7-7.5,5.9c-1.5,1.6-3,3.6-4,6c-0.3,0.8-0.6,1.6-0.8,2.5c-0.1,0.2-0.1,0.5-0.2,0.7
			c-0.6,2.8-0.5,5.7-0.1,8.4C18.6,35.8,26.3,44.2,26.9,44.9z"/>
		<path class="st7" d="M38.2,10.3c0,0-16.3,7-9.7,20.8C28.6,31.1,19.7,15.2,38.2,10.3z"/>
		<path class="st8" d="M63.5,16c-4-1.1,6.8,6.8,6.2,18.1c-0.6,11.4-19.9,11.7-19.9,11.7s16.8,4.8,22.6-8.7
			C76.9,26.5,63.5,16,63.5,16z"/>
		<path class="st9" d="M62.2,63c0.1,0,0.2-0.1,0.3-0.1C62.4,62.9,62.2,63,62.2,63z"/>
		<path class="st10" d="M62.5,62.9c0.9-0.2,3.2-0.9,6-2.4c0,0,0,0,0,0c3.3-1.8,7.2-4.9,10.3-10c0.1-0.1,0.1-0.1,0.1-0.2
			c0.5-0.8,0.9-1.6,1.3-2.4c0-0.1,0.1-0.1,0.1-0.2c0.1-0.1,0.1-0.2,0.1-0.3c0.6-1.3,1.2-2.7,1.7-4.2c0.1-0.3,0.2-0.7,0.3-1
			c2.3-8.1,0.6-15-1.7-20c-1.9-4.1-4.3-6.9-5.3-7.9c6.3,6.3,9.9,14,9.7,21.2c0,0,0,0,0,0.1c0,0.4,0,0.9-0.1,1.3c0,0.1,0,0.3,0,0.5
			c0,0.1,0,0.1,0,0.2c0,0.4-0.1,0.8-0.2,1.2c0,0.2-0.1,0.4-0.1,0.7c-0.3,1.1-0.6,2.3-1.1,3.3c-0.4,1-1,2-1.6,3c0,0,0,0,0,0l-2.8,5.1
			l0,0C76.4,57,70.2,61.2,62.5,62.9z"/>
		<path class="st11" d="M15.8,43.1c-0.6-1-1.2-2-1.6-3c0,0,0-0.1-0.1-0.1c-0.8-1.5-1.4-3-1.6-4.4c0,0,0-0.1,0-0.1c0,0,0,0,0,0
			c-1.1-4.3-1-8.7,0.5-12.7l0-0.1l1.8-5.3c0.3-1.2,0.6-2.4,1.1-3.5c0.1-0.2,0.2-0.4,0.2-0.5l0-0.1l0,0c1.1-2.3,2.6-4.2,4.4-5.9
			C20.8,7,21,6.8,21.3,6.5c0,0,0.1-0.1,0.1-0.1C25,3.2,28.6,2.2,29.2,2c0,0,0,0,0.1,0c2.3-0.8,4.8-1.4,7.4-1.7
			c-0.4,0.1-8.4,2.1-14.8,7.6c-1.9,1.6-3.6,3.4-4.9,5.6c-1,1.5-1.8,3.2-2.3,5l0,0c-0.1,0.2-0.1,0.3-0.1,0.5c0,0,0,0,0,0
			c-0.1,0.5-0.3,0.9-0.4,1.4c0,0.1,0,0.2-0.1,0.2c-0.3,1.1-0.5,2.2-0.6,3.3c-1.3,9.1,1.2,16.1,2.2,18.4l0,0
			C15.6,42.7,15.7,42.9,15.8,43.1z"/>
	</g>
	<g>
		<g>
			
				<linearGradient id="SVGID_9_" gradientUnits="userSpaceOnUse" x1="209.6265" y1="303.6767" x2="209.6265" y2="236.6139" gradientTransform="matrix(0.2421 0.9703 -0.9703 0.2421 247.1324 -163.6138)">
				<stop  offset="5.027930e-02" style="stop-color:#FF3F00"/>
				<stop  offset="1" style="stop-color:#FF6A03"/>
			</linearGradient>
			<path class="st16" d="M41.6,128.6c-4.5,1.1-8.9,1.5-13,1.3c-1.4-0.1-2.7-0.2-4-0.4c0,0,0,0,0,0c-2.7-0.4-5.2-1.1-7.5-2
				c0,0,0,0-0.1,0c-1-0.4-2-0.8-2.9-1.3c0,0-0.1,0-0.1-0.1c-1.3-0.7-2.5-1.5-3.7-2.4c0,0-0.1,0-0.1-0.1c0,0,0,0,0,0
				c-3.3-2.6-5.7-5.9-6.8-9.8l0-0.1c-0.1-0.2-0.1-0.3-0.1-0.5c-0.1-0.3-0.1-0.6-0.2-0.8c0-0.1-0.1-0.3-0.1-0.4c0-0.1,0-0.3-0.1-0.4
				c0-0.2,0-0.3-0.1-0.5c0-0.1,0-0.2,0-0.3c-0.1-1.3-0.1-2.7,0-4c0.1-0.9,0.3-1.7,0.5-2.6c2.6-9.9,12.8-19,26.6-22.5
				c2.4-0.6,4.8-1,7.1-1.2c11.4-1,21.8,2.5,27.4,9c1.3,1.5,2.3,3.1,3,4.8c0,0.1,0.1,0.1,0.1,0.2c0,0,0,0.1,0.1,0.1
				c0.3,0.7,0.5,1.4,0.7,2.2l0,0.2c0,0.1,0.1,0.3,0.1,0.4c1.4,6.3-0.8,13-5.6,18.5c-0.1,0.1-0.2,0.2-0.2,0.2
				c-0.1,0.1-0.1,0.1-0.1,0.1C57.7,121.9,50.4,126.4,41.6,128.6z"/>
			
				<linearGradient id="SVGID_10_" gradientUnits="userSpaceOnUse" x1="206.0428" y1="304.4346" x2="206.0428" y2="235.8558" gradientTransform="matrix(0.2421 0.9703 -0.9703 0.2421 247.1324 -163.6138)">
				<stop  offset="5.027930e-02" style="stop-color:#FF3F00"/>
				<stop  offset="1" style="stop-color:#FF6A03"/>
			</linearGradient>
			<path class="st17" d="M3.7,114.8l-0.3-0.9l0-0.1l-1.7-5l0-0.1l-0.7-2.2l0,0l-0.5-1.4l0-0.1l0.1,0l0.6-0.1l1-0.2l1.3-0.3l38.1-9.1
				l23-5.5l1.5-0.4L67,89l0.1,0l0.5,3.1c0,0,0,0,0,0l0.8,5.4l0,0l-0.4,0.1l-0.1,0l-0.6,0.2l-0.3,0.1l-0.1,0l-16.1,4.3L7.8,113.8
				l-2.2,0.6l-0.2,0.1l-0.1,0l-0.9,0.2L4,114.8L3.7,114.8z"/>
			
				<linearGradient id="SVGID_11_" gradientUnits="userSpaceOnUse" x1="201.4978" y1="304.4345" x2="201.4978" y2="235.8558" gradientTransform="matrix(0.2421 0.9703 -0.9703 0.2421 247.1324 -163.6138)">
				<stop  offset="0" style="stop-color:#FFA900"/>
				<stop  offset="1" style="stop-color:#FF9600"/>
			</linearGradient>
			<path class="st18" d="M39.8,121.2c-4.6,1.1-9.1,1.6-13.4,1.3c0,0,0,0,0,0c0,0,0,0,0,0c0,0,0,0,0,0c-0.1,0-0.6,0-1.3-0.1
				c-0.3,0-0.7-0.1-1-0.1c-3.2-0.3-6.2-1-8.9-2.1c-0.4-0.1-0.8-0.3-1.2-0.5c-3.3-1.4-6.1-3.2-8.3-5.5c-1.1-1.1-2-2.2-2.7-3.4
				c-0.2-0.3-0.4-0.7-0.6-1l0,0c-0.2-0.3-0.3-0.6-0.4-0.9c0,0,0-0.1-0.1-0.1c-0.5-1-0.9-2.1-1.2-3.3c0-0.2-0.1-0.4-0.1-0.5l0-0.1
				c-0.5-2.3-0.5-4.6-0.1-6.9c0-0.3,0.1-0.6,0.1-0.9c0-0.1,0-0.1,0-0.2c0.6-2.6,1.7-5.2,3.3-7.7c0,0,0,0,0,0
				c1.2-1.9,2.7-3.7,4.5-5.4l0,0c4.9-4.7,11.6-8.5,19.5-10.5c5.8-1.4,11.5-1.7,16.6-1.1c0,0,0.2,0,0.5,0.1
				c8.3,1.2,15.2,4.9,19.1,10.4c0,0,0,0,0,0c0.2,0.3,0.5,0.7,0.7,1c0.1,0.2,0.2,0.4,0.3,0.5c0.2,0.3,0.4,0.6,0.5,1
				c0.1,0.2,0.2,0.4,0.3,0.6c0.5,1,0.8,2,1.1,3.1c0.3,1,0.4,2.1,0.5,3.1c0,0,0,0,0,0c0.1,0.9,0.1,1.8,0,2.6c0,0,0,0.1,0,0.1
				c0,0.3-0.1,0.7-0.1,1c0,0,0,0,0,0.1c-0.1,0.6-0.2,1.3-0.4,1.9C64.6,108.1,54.1,117.6,39.8,121.2z"/>
			<path class="st3" d="M15.7,78.7C13.9,80.3,26.6,94.2,31,101s4.6,19.1,5.9,19.8c1.3,0.8,15.8-4.1,21.8-10.1c6-6-1.4-4-6-7.5
				C48.2,99.8,37.5,83.6,37,79.8c-0.5-3.9,1.2-5.6,0.6-7C37.1,71.4,24.6,71.4,15.7,78.7z"/>
			
				<linearGradient id="SVGID_12_" gradientUnits="userSpaceOnUse" x1="201.2754" y1="292.704" x2="201.2754" y2="247.5861" gradientTransform="matrix(0.2421 0.9703 -0.9703 0.2421 247.1324 -163.6138)">
				<stop  offset="0" style="stop-color:#FF7C04"/>
				<stop  offset="1" style="stop-color:#D92000"/>
			</linearGradient>
			<path class="st19" d="M37.6,112.6c-11.5,2.9-22.6-1.1-25.4-8.9c-0.1-0.4-0.3-0.8-0.4-1.2c-2.1-8.6,5.9-18,18-21
				c12.1-3,23.6,1.5,25.8,10.1c0.1,0.4,0.2,0.8,0.2,1.2C57,101.1,49.1,109.7,37.6,112.6z"/>
			<path class="st5" d="M37.6,112.6c-11.5,2.9-22.6-1.1-25.4-8.9c-1.2-8.2,6.7-16.9,18.2-19.8C42,81,53,85,55.9,92.8
				C57,101.1,49.1,109.7,37.6,112.6z"/>
			<path class="st20" d="M22.7,75.3c6.8-2.8,1.1,12.3-9.6,5.3C13,80.7,17.2,77.6,22.7,75.3z"/>
			<path class="st3" d="M26.3,122.6c-0.1,0-0.6,0-1.3-0.1c-2-0.2-5.8-0.7-9.9-2.2c-3.4-1.2-6.9-3.1-9.7-5.9c-0.9-1-1.8-2-2.5-3.2
				c-0.2-0.3-0.3-0.5-0.4-0.8c0,0,0,0,0,0c-0.2-0.4-0.4-0.9-0.6-1.3c0-0.1-0.1-0.1-0.1-0.2c0-0.1-0.1-0.1-0.1-0.2
				c-0.3-0.7-0.5-1.4-0.7-2l0,0c-0.2-0.5-0.3-1.1-0.4-1.6c-0.6-2.9-0.5-5.5-0.1-7.8c0-0.1,0-0.1,0-0.2c0.8-4.4,2.9-7.2,3.3-7.7
				c0,0,0,0,0,0c0,0,0,0,0,0c0.5-0.7-1.7,3.2-2.2,8.6c-0.2,2-0.1,4.4,0.5,6.7c0.2,0.8,0.5,1.5,0.8,2.3c0.1,0.2,0.2,0.4,0.3,0.6
				c1.2,2.4,2.8,4.5,4.7,6.3C14.9,120.5,25.4,122.4,26.3,122.6z"/>
			<path class="st7" d="M15.1,90.4c0,0-8.2,14.3,4.6,20.9C19.7,111.4,4.2,104.5,15.1,90.4z"/>
			<path class="st8" d="M37,80.5c-3.6,1.4,8.9,1.2,14.9,10c6,8.8-8.2,19.9-8.2,19.9s15.2-5.8,11.9-19.2C53,80.8,37,80.5,37,80.5z"/>
			<path class="st9" d="M62.6,116.3c0.1-0.1,0.1-0.2,0.2-0.2C62.8,116.1,62.7,116.2,62.6,116.3z"/>
			<path class="st9" d="M62.8,116c0.6-0.7,1.9-2.5,3-5.2c0,0,0,0,0,0c1.4-3.2,2.6-7.7,2-13.2c0-0.1,0-0.2,0-0.2
				c-0.1-0.8-0.2-1.7-0.4-2.5c0-0.1,0-0.2,0-0.2c0-0.1,0-0.2-0.1-0.3c-0.3-1.3-0.7-2.7-1.1-4.1c-0.1-0.3-0.2-0.6-0.4-0.9
				c-2.9-7.4-8-11.6-12.5-13.9c-3.8-2-7.1-2.7-8.4-2.9c8.3,1.2,15.2,4.9,19.1,10.4c0,0,0,0,0,0c0.2,0.3,0.5,0.7,0.7,1
				c0.1,0.1,0.2,0.2,0.2,0.4c0,0.1,0.1,0.1,0.1,0.2c0.2,0.3,0.4,0.6,0.5,1c0.1,0.2,0.2,0.4,0.3,0.6c0.5,1,0.8,2,1.1,3.1
				c0.3,1,0.4,2.1,0.5,3.1c0,0,0,0,0,0l0.8,5.4l0,0C69.8,103.8,67.6,110.4,62.8,116z"/>
			<path class="st9" d="M17,127.5c-1-0.4-2-0.8-2.9-1.3c0,0-0.1,0-0.1-0.1c-1.4-0.7-2.7-1.5-3.7-2.4c0,0-0.1,0-0.1-0.1c0,0,0,0,0,0
				c-3.3-2.6-5.7-5.9-6.8-9.8l0-0.1l-1.7-5c-0.5-1-0.9-2.1-1.2-3.3c0-0.2-0.1-0.4-0.1-0.5l0-0.1l0,0c-0.5-2.3-0.5-4.6-0.1-6.9
				c0-0.3,0.1-0.6,0.1-0.9c0-0.1,0-0.1,0-0.2c0.8-4.4,2.9-7.2,3.3-7.7c0,0,0,0,0,0c1.2-1.9,2.7-3.7,4.5-5.4c-0.2,0.3-5,6.2-6.7,14
				c-0.5,2.2-0.7,4.6-0.5,7c0.1,1.7,0.5,3.4,1.1,5.1l0,0c0.1,0.2,0.1,0.3,0.2,0.4c0,0,0,0,0,0c0.2,0.4,0.3,0.9,0.5,1.3
				c0,0.1,0.1,0.1,0.1,0.2c0.4,1,0.9,1.9,1.4,2.8c4.2,7.6,10,11.4,12,12.5l0,0C16.7,127.3,16.9,127.4,17,127.5z"/>
		</g>
		<g>
			<linearGradient id="SVGID_13_" gradientUnits="userSpaceOnUse" x1="73.6366" y1="143.0629" x2="73.6366" y2="63.7398">
				<stop  offset="5.027930e-02" style="stop-color:#FF3F00"/>
				<stop  offset="0.7179" style="stop-color:#FF6A03"/>
				<stop  offset="1" style="stop-color:#FFFF04"/>
			</linearGradient>
			<path class="st21" d="M106.8,103.4c0,5.4-0.9,10.6-2.6,15.3c-0.5,1.5-1.1,3-1.9,4.4c0,0,0,0,0,0c-1.4,3-3.2,5.7-5.1,8.1
				c0,0,0,0-0.1,0.1c-0.9,1.1-1.8,2.1-2.8,3c0,0-0.1,0.1-0.1,0.1c-1.4,1.3-2.8,2.5-4.4,3.5c0,0-0.1,0.1-0.1,0.1c0,0,0,0,0,0
				c-4.6,3-9.8,4.8-15.3,5h-0.1c-0.2,0-0.5,0-0.7,0c-0.4,0-0.8,0-1.2,0c-0.2,0-0.4,0-0.6,0c-0.2,0-0.4,0-0.6,0c-0.2,0-0.4,0-0.6-0.1
				c-0.1,0-0.2,0-0.4,0c-1.8-0.2-3.6-0.6-5.4-1.2c-1.1-0.4-2.2-0.8-3.3-1.3c-12.4-5.8-21.1-20.2-21.1-37c0-2.9,0.3-5.7,0.8-8.5
				c2.4-13.4,10.6-24.3,21.2-28.9c2.4-1,4.9-1.7,7.4-2.1c0.1,0,0.2,0,0.3,0c0.1,0,0.1,0,0.2,0c1-0.1,2.1-0.2,3.1-0.2h0.2
				c0.2,0,0.4,0,0.6,0c9,0.2,17.1,4.6,22.9,11.7c0.1,0.1,0.2,0.2,0.3,0.3c0.1,0.1,0.1,0.1,0.1,0.1C103.3,83,106.8,92.7,106.8,103.4z
				"/>
			<linearGradient id="SVGID_14_" gradientUnits="userSpaceOnUse" x1="68.6994" y1="143.9596" x2="68.6994" y2="62.8431">
				<stop  offset="5.027930e-02" style="stop-color:#FF3F00"/>
				<stop  offset="0.7179" style="stop-color:#FF6A03"/>
				<stop  offset="1" style="stop-color:#FFFF04"/>
			</linearGradient>
			<path class="st22" d="M75.9,142.9l-1.4,0.1h-0.1l-7.2,0.5l-0.2,0l-3.2,0.2h0l-2.1,0.1l-0.1,0v-0.2l0-0.7l0-1.2l0-1.6L62.1,94
				l0.3-28l0-1.8l0-1.3v-0.1l4.3,0.3c0,0,0,0,0,0l7.5,0.6v0l0,0.5v0.2l0,0.7v0.4l0,0.1l0.4,19.7l1.1,52.6l0.1,2.7v0.3l0,0.1l0,1.1
				v0.5L75.9,142.9z"/>
			<linearGradient id="SVGID_15_" gradientUnits="userSpaceOnUse" x1="62.4345" y1="143.9596" x2="62.4345" y2="62.8431">
				<stop  offset="0" style="stop-color:#FFA900"/>
				<stop  offset="1" style="stop-color:#FF9600"/>
			</linearGradient>
			<path class="st23" d="M96.4,103.4c0,5.6-1,10.9-2.7,15.8c0,0,0,0,0,0c0,0,0,0,0,0c0,0,0,0,0,0c-0.1,0.2-0.2,0.7-0.6,1.5
				c-0.1,0.4-0.3,0.8-0.5,1.1c-1.5,3.6-3.5,6.8-5.8,9.7c-0.3,0.4-0.6,0.8-1,1.2c-2.9,3.3-6.3,6-10.1,8c-1.8,0.9-3.6,1.6-5.5,2.2
				c-0.5,0.1-1,0.3-1.6,0.4h0c-0.4,0.1-0.9,0.2-1.3,0.3c-0.1,0-0.1,0-0.2,0c-1.6,0.3-3.1,0.4-4.8,0.4c-0.2,0-0.5,0-0.7,0h-0.1
				c-3.2-0.1-6.3-0.8-9.2-1.9c-0.4-0.1-0.8-0.3-1.1-0.4c-0.1,0-0.2-0.1-0.2-0.1c-3.3-1.4-6.4-3.5-9.1-6c0,0,0,0,0,0
				c-2.1-2-4.1-4.2-5.8-6.7v0c-4.7-7-7.5-15.8-7.5-25.4c0-7,1.5-13.6,4.1-19.4c0,0,0.1-0.2,0.3-0.6c4.3-9.1,11.6-16.1,20.2-19
				c0,0,0,0,0.1,0c0.5-0.2,1-0.3,1.6-0.5c0.3-0.1,0.6-0.1,0.8-0.2c0.5-0.1,1-0.2,1.5-0.3c0.3-0.1,0.6-0.1,0.9-0.1
				c1.5-0.2,3-0.4,4.5-0.4c1.5,0,2.9,0.1,4.3,0.3c0,0,0,0,0,0c1.2,0.2,2.4,0.4,3.5,0.8c0.1,0,0.1,0,0.1,0c0.4,0.1,0.9,0.3,1.3,0.4
				c0,0,0,0,0.1,0c0.8,0.3,1.6,0.6,2.4,1C87.2,71.1,96.4,86,96.4,103.4z"/>
			<linearGradient id="SVGID_16_" gradientUnits="userSpaceOnUse" x1="62.1281" y1="130.0843" x2="62.1281" y2="76.7183">
				<stop  offset="0" style="stop-color:#FF7C04"/>
				<stop  offset="1" style="stop-color:#D92000"/>
			</linearGradient>
			<path class="st24" d="M84.2,103.4c0,14.1-9,25.6-20.4,26.6c-0.6,0.1-1.1,0.1-1.7,0.1c-12.2,0-22.1-11.9-22.1-26.7
				c0-14.7,9.9-26.7,22.1-26.7c0.6,0,1.1,0,1.7,0.1C75.2,77.8,84.2,89.3,84.2,103.4z"/>
			<path class="st25" d="M84.2,103.4c0,14.1-9,25.6-20.4,26.6c-11.4-1-20.4-12.5-20.4-26.6c0-14.1,9-25.6,20.4-26.6
				C75.2,77.8,84.2,89.3,84.2,103.4z"/>
			<path class="st6" d="M29.6,113.3c-0.8-4.9,9.5,1.3,2.2,7.1C31.8,120.4,30.3,117.2,29.6,113.3z"/>
			<path class="st20" d="M73.6,63.7c-2.7-0.3,13.7,6,18,17.5C96,92.7,104,89,104,89S96.3,64.7,73.6,63.7z"/>
			<path class="st26" d="M104.3,118.7c-0.2,1.1-0.9,2.6-1.9,4.4c0,0,0,0,0,0c-1.4,2.7-3.5,5.9-5.8,8.7l0,0c-0.7,0.8-1.4,1.6-2.1,2.4
				c0,0-0.1,0.1-0.1,0.1c-1.4,1.4-2.9,2.7-4.4,3.5c0,0-0.1,0.1-0.1,0.1c0,0,0,0,0,0c-4.9,2.8-10.4,4-13.9,4.6
				c-1.6,0.2-2.8,0.4-3.4,0.4c-0.2,0-0.4,0-0.4,0c-0.1,0-0.2,0-0.3-0.1c-0.1,0-0.2-0.1-0.2-0.1c-0.3-0.2,1.5-0.6,4.2-1.9
				c4.8-2.2,12.5-7.2,16.9-19.2c0,0,9.1-5,11.3-4.6C104.4,117.4,104.5,117.9,104.3,118.7z"/>
			<path class="st7" d="M71.7,64.4c0,0,19,4.3,24.7,27.8c5.7,23.5-11.8,42.5-11.8,42.5s12.6-17.2,9.9-40.1S71.7,64.4,71.7,64.4z"/>
			<path class="st6" d="M96,92.6c-1.4-2.1-4.3,9.2-0.3,11.4C97.6,105,98.7,96.6,96,92.6z"/>
			<path class="st3" d="M93.7,119.3c-0.1,0.2-0.2,0.7-0.6,1.5c-0.9,2.2-2.9,6.5-6.2,10.8c-2.7,3.6-6.4,7.1-11.1,9.4
				c-1.6,0.8-3.3,1.5-5.2,1.9c-0.4,0.1-0.8,0.2-1.2,0.3c0,0,0,0-0.1,0c-0.6,0.1-1.3,0.2-2,0.3c-0.1,0-0.2,0-0.3,0
				c-0.1,0-0.2,0-0.3,0c-1,0.1-2,0.2-2.9,0.2h0c-0.8,0-1.5,0-2.2,0c-4.1-0.2-7.6-1-10.4-2.1c-0.1,0-0.2-0.1-0.2-0.1
				c-5.5-2.2-8.6-5.4-9.1-6c0,0,0,0,0,0c0,0,0,0,0,0c-0.8-0.7,3.8,2.9,10.7,5c2.7,0.8,5.8,1.4,9.1,1.4c1.1,0,2.2-0.1,3.3-0.2
				c0.3,0,0.6-0.1,0.9-0.1c3.7-0.7,7-1.9,9.9-3.6C87.1,131.7,93.2,120.2,93.7,119.3z"/>
			<path class="st7" d="M47,122.9c0,0,16.5,13.5,29.5,0.7C76.6,123.6,62.2,139.4,47,122.9z"/>
			<path class="st11" d="M41,94.9c0.7,4.5,4.6-9.8,18.4-14.2c13.7-4.4,23.9,15.1,23.9,15.1s-2.7-19.1-21.7-19.1
				C46.8,76.6,41,94.9,41,94.9z"/>
			<path class="st20" d="M78.5,139.8c-1.4,0.9,6.3,1,9.4-0.8c3.1-1.8,7.5-5.3,8.1-7.5c0.6-2.2-3.7-1.7-6.3-1.1
				C87.2,131.1,84.9,135.7,78.5,139.8z"/>
			<path class="st9" d="M97.4,75.7c-0.1-0.1-0.2-0.2-0.3-0.3C97.3,75.6,97.4,75.7,97.4,75.7z"/>
			<path class="st6" d="M79.8,65.4c-4-0.2,4.4,6,7.8,8.7c3.3,2.7,8.7,0.8,8.9,0.5C96.5,74.3,87.8,65.7,79.8,65.4z"/>
		</g>
		<g>
			
				<linearGradient id="SVGID_17_" gradientUnits="userSpaceOnUse" x1="260.1548" y1="222.5099" x2="260.1548" y2="143.6241" gradientTransform="matrix(-0.301 0.9536 -0.9536 -0.301 344.668 -59.637)">
				<stop  offset="5.027930e-02" style="stop-color:#FF3F00"/>
				<stop  offset="1" style="stop-color:#FF6A03"/>
			</linearGradient>
			<path class="st27" d="M83.3,160.4c-5.2-1.6-9.8-3.9-13.9-6.7c-1.3-0.9-2.6-1.8-3.7-2.8c0,0,0,0,0,0c-2.4-2-4.6-4.3-6.3-6.6
				c0,0,0-0.1-0.1-0.1c-0.8-1-1.5-2.1-2.1-3.1c0,0,0-0.1-0.1-0.1c-0.9-1.5-1.6-3.1-2.2-4.6c0,0,0-0.1-0.1-0.1c0,0,0,0,0,0
				c-1.7-4.6-2.1-9.4-0.8-13.9l0-0.1c0.1-0.2,0.1-0.4,0.2-0.6c0.1-0.3,0.2-0.6,0.3-0.9c0.1-0.2,0.1-0.3,0.2-0.5
				c0.1-0.1,0.1-0.3,0.2-0.4c0.1-0.2,0.1-0.3,0.2-0.5c0-0.1,0.1-0.2,0.1-0.3c0.7-1.4,1.5-2.8,2.5-4c0.6-0.8,1.3-1.6,2.1-2.3
				c8.7-8.3,24.5-11.2,40.5-6.1c2.8,0.9,5.4,1.9,7.8,3.2c12.1,6,20.3,15.9,21.9,25.9c0.4,2.2,0.4,4.5,0.1,6.7c0,0.1,0,0.2,0,0.2
				c0,0,0,0.1,0,0.2c-0.1,0.9-0.4,1.8-0.6,2.6l-0.1,0.2c0,0.2-0.1,0.3-0.2,0.5c-2.5,7.2-8.8,12.5-17,15.2c-0.1,0.1-0.3,0.1-0.4,0.1
				c-0.1,0-0.2,0.1-0.2,0.1C103.5,163.6,93.4,163.6,83.3,160.4z"/>
			
				<linearGradient id="SVGID_18_" gradientUnits="userSpaceOnUse" x1="255.9393" y1="223.4016" x2="255.9393" y2="142.7325" gradientTransform="matrix(-0.301 0.9536 -0.9536 -0.301 344.668 -59.637)">
				<stop  offset="5.027930e-02" style="stop-color:#FF3F00"/>
				<stop  offset="1" style="stop-color:#FF6A03"/>
			</linearGradient>
			<path class="st28" d="M53.7,123.3l0.3-1.1l0-0.1l1.4-6l0-0.1l0.6-2.7l0,0l0.4-1.8l0-0.1l0.2,0.1l0.7,0.2l1.1,0.4l1.5,0.5
				l43.8,14.3l26.4,8.6l1.7,0.6l1.2,0.4l0.1,0l-1.4,3.4c0,0,0,0,0,0l-2.5,5.9l0,0l-0.5-0.2l-0.2,0l-0.7-0.2l-0.3-0.1l-0.1,0
				l-18.8-5.6l-50.1-14.9l-2.6-0.8l-0.3-0.1l-0.1,0l-1-0.3l-0.5-0.1L53.7,123.3z"/>
			
				<linearGradient id="SVGID_19_" gradientUnits="userSpaceOnUse" x1="250.5927" y1="223.4016" x2="250.5927" y2="142.7325" gradientTransform="matrix(-0.301 0.9536 -0.9536 -0.301 344.668 -59.637)">
				<stop  offset="0" style="stop-color:#FFA900"/>
				<stop  offset="1" style="stop-color:#FFC600"/>
			</linearGradient>
			<path class="st29" d="M85.9,151.9c-5.3-1.7-10.1-4.1-14.3-6.9c0,0,0,0,0,0c0,0,0,0,0,0c0,0,0,0,0,0c-0.1-0.1-0.6-0.4-1.2-0.9
				c-0.3-0.2-0.6-0.5-0.9-0.7c-3-2.3-5.6-4.9-7.7-7.6c-0.3-0.4-0.6-0.8-0.9-1.2c-2.4-3.4-4.1-7-5-10.6c-0.4-1.7-0.6-3.4-0.6-5.1
				c0-0.5,0-0.9,0-1.4l0,0c0-0.4,0-0.8,0.1-1.2c0,0,0-0.1,0-0.1c0.2-1.3,0.4-2.7,0.8-4c0.1-0.2,0.1-0.4,0.2-0.6l0-0.1
				c0.9-2.6,2.3-4.9,4.1-7c0.2-0.3,0.5-0.5,0.7-0.8c0-0.1,0.1-0.1,0.1-0.2c2.2-2.3,4.9-4.2,8-5.6c0,0,0,0,0.1,0c2.4-1.1,5-2,7.9-2.7
				l0,0c7.8-1.7,16.9-1.4,26,1.5c6.7,2.1,12.6,5.3,17.3,9.2c0,0,0.2,0.1,0.5,0.4c7.6,6.3,12.3,14.2,12.8,22.2c0,0,0,0,0,0.1
				c0,0.5,0.1,0.9,0.1,1.4c0,0.3,0,0.5,0,0.7c0,0.4,0,0.9-0.1,1.3c0,0.2-0.1,0.5-0.1,0.7c-0.2,1.3-0.4,2.5-0.8,3.8
				c-0.4,1.2-0.9,2.3-1.4,3.4c0,0,0,0,0,0c-0.5,0.9-1,1.8-1.6,2.6c0,0,0,0.1-0.1,0.1c-0.2,0.3-0.5,0.6-0.7,1c0,0,0,0,0,0.1
				c-0.5,0.6-1,1.2-1.5,1.7C118.9,154,102.5,157.1,85.9,151.9z"/>
			<path class="st3" d="M88,94.5c-2.8,0.4,1.4,22.2,1.6,31.7c0.2,9.5-7.1,22-6.3,23.5c0.8,1.5,18.4,5.6,28.1,3.3
				c9.7-2.4,1.1-4.9-1.4-11.2c-2.5-6.3-3.2-29-1.3-33.2c1.9-4.2,4.7-4.9,4.9-6.6C113.9,100.3,101.4,92.6,88,94.5z"/>
			
				<linearGradient id="SVGID_20_" gradientUnits="userSpaceOnUse" x1="250.3309" y1="209.6031" x2="250.3309" y2="156.5307" gradientTransform="matrix(-0.301 0.9536 -0.9536 -0.301 344.668 -59.637)">
				<stop  offset="0" style="stop-color:#FF7C04"/>
				<stop  offset="1" style="stop-color:#D92000"/>
			</linearGradient>
			<path class="st30" d="M89.1,141.9c-13.3-4.2-22-15-20-24.6c0.1-0.5,0.2-0.9,0.4-1.4c3.1-9.9,17-14.4,31-10
				c14,4.4,22.8,16,19.6,26c-0.1,0.5-0.3,0.9-0.5,1.3C115.6,142.3,102.4,146.1,89.1,141.9z"/>
			<path class="st5" d="M89.1,141.9c-13.3-4.2-22-15-20-24.6c3.9-9,17.1-12.9,30.5-8.7c13.3,4.2,21.9,15,20,24.6
				C115.6,142.3,102.4,146.1,89.1,141.9z"/>
			<path class="st6" d="M97,95.4c8.5,1.4-6.5,13-12.9-0.6C84.1,94.8,90.2,94.3,97,95.4z"/>
			<path class="st3" d="M71.6,144.9c-0.1-0.1-0.6-0.4-1.2-0.9c-1.9-1.4-5.4-4.3-8.6-8.3c-2.7-3.3-5.1-7.3-6.1-11.9
				c-0.3-1.5-0.5-3.1-0.5-4.8c0-0.4,0-0.7,0-1.1c0,0,0,0,0,0c0-0.6,0.1-1.1,0.2-1.7c0-0.1,0-0.2,0-0.3c0-0.1,0-0.2,0-0.2
				c0.2-0.8,0.3-1.7,0.6-2.4l0,0c0.2-0.6,0.4-1.2,0.6-1.8c1.2-3.3,2.9-5.9,4.7-7.8c0-0.1,0.1-0.1,0.1-0.2c3.5-3.9,7.3-5.4,8-5.6
				c0,0,0,0,0.1,0c0,0,0.1,0,0.1,0c0.9-0.4-3.7,2.2-7.5,7.2c-1.5,1.9-2.8,4.3-3.7,7c-0.3,0.9-0.5,1.8-0.6,2.8c0,0.3-0.1,0.5-0.1,0.8
				c-0.3,3.2,0,6.3,0.8,9.2C61.5,135.9,70.8,144.2,71.6,144.9z"/>
			<path class="st7" d="M80.2,105.9c0,0-17,9.4-8.3,23.8C71.9,129.7,60.5,113.3,80.2,105.9z"/>
			<path class="st8" d="M108.3,109.4c-4.5-0.8,8.1,6.7,8.7,19.2c0.6,12.5-20.4,14.9-20.4,14.9s18.8,3.5,23.7-11.9
				C124.1,119.5,108.3,109.4,108.3,109.4z"/>
			<path class="st9" d="M111.9,161c0.1,0,0.2-0.1,0.4-0.1C112.1,160.9,112,161,111.9,161z"/>
			<path class="st10" d="M59.2,144.1c-0.8-1-1.5-2.1-2.1-3.1c0,0,0-0.1-0.1-0.1c-1-1.6-1.8-3.2-2.2-4.6c0,0,0-0.1-0.1-0.1
				c0,0,0,0,0,0c-1.7-4.6-2.1-9.4-0.8-13.9l0-0.1l1.4-6c0.2-1.3,0.4-2.7,0.8-4c0.1-0.2,0.1-0.4,0.2-0.6l0-0.1l0,0
				c0.9-2.6,2.3-4.9,4.1-7c0.2-0.3,0.5-0.5,0.7-0.8c0-0.1,0.1-0.1,0.1-0.2c3.5-3.9,7.3-5.4,8-5.6c0,0,0,0,0.1,0c2.4-1.1,5-2,7.9-2.7
				C77,95.2,68.5,98.2,62,105c-1.8,1.9-3.5,4.1-4.8,6.7c-0.9,1.8-1.6,3.7-2,5.8l0,0c0,0.2-0.1,0.4-0.1,0.6c0,0,0,0,0,0
				c-0.1,0.5-0.2,1.1-0.3,1.6c0,0.1,0,0.2,0,0.3c-0.2,1.3-0.3,2.5-0.3,3.7c-0.5,10.1,3,17.5,4.3,19.9l0,0
				C59,143.8,59.2,144,59.2,144.1z"/>
			<path class="st6" d="M101.6,153.5c-7.3-0.9,9-12.2,15.9-12.6c6.9-0.4,5.5,4.9,4.2,7.2C120.3,150.3,109.3,154.4,101.6,153.5z"/>
		</g>
	</g>
</g>
</svg>
