<?xml version="1.0" standalone="no"?><!DOCTYPE svg PUBLIC "-//W3C//DTD SVG 1.1//EN" "http://www.w3.org/Graphics/SVG/1.1/DTD/svg11.dtd"><svg class="icon" width="200px" height="200.00px" viewBox="0 0 1024 1024" version="1.1" xmlns="http://www.w3.org/2000/svg"><path d="M794.2656 857.7536H118.6816c-34.3552 0-62.208-27.8528-62.208-62.208V348.3648c0-34.3552 27.8528-62.208 62.208-62.208h675.584c34.3552 0 62.208 27.8528 62.208 62.208v447.232c0 34.3552-27.8528 62.1568-62.208 62.1568z" fill="#FFAC3E" /><path d="M908.4416 743.2192H232.8576c-34.3552 0-62.208-27.8528-62.208-62.208V233.7792c0-34.3552 27.8528-62.208 62.208-62.208h675.584c34.3552 0 62.208 27.8528 62.208 62.208v447.232c-0.0512 34.3552-27.8528 62.208-62.208 62.208z" fill="#FFAC3E" /><path d="M795.6992 286.1568H170.7008v396.2368c0 33.5872 27.1872 60.7744 60.7744 60.7744h624.9984V346.9312c0-33.536-27.2384-60.7744-60.7744-60.7744z" fill="#FF7C0E" /><path d="M56.4224 392.96h800v79.5648H56.4224zM369.3056 618.8032H173.3632c-22.6304 0-40.96-18.3296-40.96-40.96s18.3296-40.96 40.96-40.96h195.9424c22.6304 0 40.96 18.3296 40.96 40.96s-18.3808 40.96-40.96 40.96z" fill="#FFFFFF" /></svg>