<?xml version="1.0" encoding="utf-8"?>
<!-- Generator: Adobe Illustrator 19.0.0, SVG Export Plug-In . SVG Version: 6.00 Build 0)  -->
<svg version="1.1" id="图层_1" xmlns="http://www.w3.org/2000/svg" xmlns:xlink="http://www.w3.org/1999/xlink" x="0px" y="0px"
	 viewBox="-24 947.7 150 106.3" style="enable-background:new -24 947.7 150 106.3;" xml:space="preserve">
<style type="text/css">
	.st0{fill:#E2E2E2;}
</style>
<g>
	<path class="st0" d="M74.8,1021.6c-8.4,0.1-15.2,6.9-15.3,15.3c-0.1,5.3,2.5,10.1,6.5,13h47.5c3.7,0,6.7-3,6.7-6.7v-21.6H74.8z"/>
	<path class="st0" d="M59.1,962.5c-1.2,8.5,4.8,16.4,13.3,17.6V980h47.7v-21.6c0-3.7-3-6.7-6.7-6.7H65.8
		C62.3,954.2,59.8,958,59.1,962.5z"/>
	<rect x="77.3" y="984.6" class="st0" width="42.9" height="32.1"/>
	<path class="st0" d="M72.5,1016.8v-32c-10.3-1.1-18.2-9.8-18.2-20.3c0-4.8,1.7-9.3,4.5-12.8H43.3c2.9,3.5,4.6,8,4.6,12.9
		c0,10.4-7.9,19.2-18.3,20.3v32c10.1,1.3,17.7,9.8,17.8,19.9c0,5-1.7,9.6-4.6,13.2h16.4c-2.3-2.8-3.8-6.3-4.3-10.2
		C53.4,1028.6,61.3,1018.3,72.5,1016.8z"/>
	<path class="st0" d="M42.5,1037.4c0.1-8.6-6.7-15.8-15.3-15.9h-45.3v21.7c0,3.7,3,6.7,6.7,6.7h47.3
		C39.8,1047.2,42.5,1042.6,42.5,1037.4z"/>
	<path class="st0" d="M29.5,980.1L29.5,980.1c7.8-1,13.5-7.6,13.5-15.4c0-5.4-2.7-10.1-6.8-13h-47.6c-3.7,0-6.7,3-6.7,6.7V980h47.6
		V980.1z"/>
	<path class="st0" d="M24.8,984.8h-43c0,14.3,0,17.7,0,32.1h43V984.8z"/>
</g>
</svg>
