<?xml version="1.0" encoding="utf-8"?>
<!-- Generator: Adobe Illustrator 23.0.0, SVG Export Plug-In . SVG Version: 6.00 Build 0)  -->
<svg version="1.1" id="图层_1" xmlns="http://www.w3.org/2000/svg" xmlns:xlink="http://www.w3.org/1999/xlink" x="0px" y="0px"
	 viewBox="0 0 100 100" style="enable-background:new 0 0 100 100;" xml:space="preserve">
<style type="text/css">
	.st0{opacity:0.1;}
	.st1{fill:#2A4C87;}
	.st2{fill:#2E4E88;}
	.st3{fill:#1F3D70;}
	.st4{fill:#194C88;}
	.st5{fill:#3468A3;}
	.st6{fill:#4C8DCB;}
	.st7{fill:#3498B3;}
	.st8{fill:#0AA496;}
	.st9{fill:#00AA75;}
	.st10{fill:#4FBA6A;}
	.st11{fill:#7EC45F;}
	.st12{fill:#4C609B;}
	.st13{fill:#54669F;}
	.st14{fill:#746FA7;}
	.st15{fill:#99558E;}
	.st16{fill:#AF3379;}
	.st17{fill:#BE266A;}
	.st18{fill:#D4525C;}
	.st19{fill:#E0654F;}
	.st20{fill:#F57F2A;}
	.st21{fill:#F89828;}
	.st22{fill:#FEC127;}
	.st23{fill:#FED627;}
	.st24{fill:#351A55;}
</style>
<g class="st0">
	<path class="st1" d="M85.1,42.7c0.5,1.8,2.4,2.9,4.2,2.4c1.8-0.5,2.9-2.4,2.4-4.2c-0.5-1.8-2.4-2.9-4.2-2.4l0,0
		C85.7,38.9,84.6,40.8,85.1,42.7z"/>
	<path class="st1" d="M80.4,46.3c1.2-0.3,2-1.6,1.7-2.9c-0.3-1.2-1.6-2-2.9-1.7c-1.2,0.3-2,1.6-1.7,2.9l0,0
		C77.8,45.9,79.1,46.7,80.4,46.3z"/>
	<path class="st1" d="M73.5,47.5c0.9-0.3,1.5-1.2,1.2-2.1c-0.3-0.9-1.2-1.5-2.1-1.2c-0.9,0.3-1.5,1.2-1.2,2.1l0,0
		C71.6,47.2,72.6,47.8,73.5,47.5z"/>
	<path class="st2" d="M68.2,48.4c0.6-0.2,0.9-0.8,0.8-1.3c-0.1-0.6-0.8-0.9-1.3-0.8c-0.6,0.2-0.9,0.8-0.8,1.3
		C67,48.1,67.6,48.5,68.2,48.4z"/>
	<path class="st3" d="M82.5,35.7c0.9,1.5,2.8,2,4.3,1.2c1.5-0.9,2-2.8,1.2-4.3c-0.9-1.5-2.8-2-4.3-1.2l0,0
		C82.2,32.2,81.7,34.2,82.5,35.7z"/>
	<path class="st3" d="M75.6,39.6c0.6,1.1,1.9,1.4,3,0.8c1.1-0.6,1.4-1.9,0.8-3c-0.6-1.1-1.9-1.4-3-0.8l0,0
		C75.4,37.2,75,38.6,75.6,39.6z"/>
	<path class="st3" d="M70.7,40.7c-0.8,0.4-1,1.4-0.6,2.1c0.4,0.8,1.4,1,2.1,0.6c0.8-0.4,1-1.4,0.6-2.1l0,0
		C72.4,40.5,71.4,40.3,70.7,40.7z"/>
	<path class="st3" d="M66.4,43.9c-0.5,0.3-0.7,0.9-0.4,1.4c0.3,0.5,0.9,0.7,1.4,0.4c0.5-0.3,0.7-0.9,0.4-1.4l0,0
		C67.5,43.8,66.8,43.6,66.4,43.9z"/>
	<path class="st4" d="M82.2,29.5c1.1-1.1,1.1-2.9,0-4c-1.1-1.1-2.9-1.1-4,0c-1.1,1.1-1.1,2.9,0,4C79.3,30.6,81.1,30.6,82.2,29.5
		L82.2,29.5z"/>
	<path class="st4" d="M75.3,32.4c-0.8-0.8-2.1-0.8-2.9,0c-0.8,0.8-0.8,2.1,0,2.9c0.8,0.8,2.1,0.8,2.9,0l0,0
		C76.1,34.5,76.1,33.2,75.3,32.4z"/>
	<path class="st4" d="M68,37.8c-0.6,0.6-0.6,1.5,0,2c0.6,0.6,1.5,0.6,2,0c0.6-0.6,0.6-1.5,0-2C69.5,37.2,68.6,37.2,68,37.8z"/>
	<path class="st4" d="M64.5,43.2c0.4,0.4,1,0.4,1.3,0c0.4-0.4,0.4-1,0-1.3c-0.4-0.4-1-0.4-1.3,0C64.2,42.3,64.2,42.9,64.5,43.2
		L64.5,43.2z"/>
	<path class="st5" d="M72.3,24.8c1.3,0.7,2.9,0.3,3.6-1s0.3-2.9-1-3.6s-2.9-0.3-3.6,1l0,0C70.5,22.4,71,24,72.3,24.8
		C72.2,24.8,72.3,24.8,72.3,24.8z"/>
	<path class="st5" d="M67.6,29.3c-0.5,0.9-0.2,2.1,0.7,2.6c0.9,0.5,2.1,0.2,2.6-0.7c0.5-0.9,0.2-2.1-0.7-2.6
		C69.2,28,68.1,28.4,67.6,29.3L67.6,29.3z"/>
	<path class="st5" d="M66.3,35.1c-0.6-0.3-1.4-0.1-1.7,0.5c-0.3,0.6-0.1,1.4,0.5,1.7s1.4,0.1,1.7-0.5C67.1,36.3,66.9,35.5,66.3,35.1
		z"/>
	<path class="st5" d="M63.4,40.2c-0.4-0.2-0.9-0.1-1.2,0.3c-0.2,0.4-0.1,0.9,0.3,1.2c0.4,0.3,0.9,0.1,1.2-0.3
		C64,40.9,63.8,40.4,63.4,40.2L63.4,40.2z"/>
	<path class="st6" d="M65.3,21.7c1.3,0.4,2.7-0.4,3.1-1.8c0.4-1.3-0.4-2.7-1.8-3.1c-1.3-0.3-2.7,0.4-3.1,1.8l0,0
		C63.2,20,64,21.3,65.3,21.7z"/>
	<path class="st6" d="M63.2,29.6c0.9,0.3,1.9-0.3,2.1-1.2c0.3-0.9-0.3-1.9-1.2-2.1c-0.9-0.3-1.9,0.3-2.1,1.2l0,0
		C61.8,28.4,62.3,29.3,63.2,29.6z"/>
	<path class="st6" d="M61.6,35.8c0.6,0.2,1.3-0.2,1.4-0.8c0.2-0.6-0.2-1.3-0.8-1.4c-0.6-0.2-1.3,0.2-1.4,0.8
		C60.6,35,60.9,35.6,61.6,35.8z"/>
	<path class="st6" d="M59.7,39.7c-0.1,0.4,0.1,0.9,0.6,1c0.4,0.1,0.9-0.1,1-0.6c0.1-0.4-0.1-0.9-0.6-1l0,0
		C60.3,39,59.8,39.3,59.7,39.7z"/>
	<path class="st7" d="M57.7,20.5c1.3,0,2.4-1.1,2.4-2.4s-1.1-2.3-2.4-2.3c-1.3,0-2.4,1.1-2.4,2.4l0,0C55.4,19.5,56.5,20.5,57.7,20.5
		L57.7,20.5z"/>
	<path class="st7" d="M57.7,25.6c-0.9,0-1.6,0.7-1.6,1.6s0.7,1.6,1.6,1.6c0.9,0,1.6-0.7,1.6-1.6l0,0C59.3,26.3,58.6,25.6,57.7,25.6z
		"/>
	<path class="st7" d="M58.8,34.1c0-0.6-0.5-1.1-1.1-1.1s-1.1,0.5-1.1,1.1c0,0.6,0.5,1.1,1.1,1.1l0,0C58.4,35.2,58.8,34.7,58.8,34.1
		L58.8,34.1z"/>
	<path class="st7" d="M57.7,38.8c-0.4,0-0.7,0.3-0.7,0.7c0,0.4,0.3,0.7,0.7,0.7c0.4,0,0.7-0.3,0.7-0.7l0,0
		C58.5,39.1,58.1,38.8,57.7,38.8z"/>
	<path class="st8" d="M50.1,21.4c1.2-0.3,1.9-1.5,1.5-2.7c-0.3-1.2-1.5-1.9-2.7-1.5c-1.2,0.4-1.9,1.5-1.5,2.7l0,0
		C47.7,21,48.9,21.7,50.1,21.4z"/>
	<path class="st8" d="M50.5,28.3c0.2,0.8,1,1.2,1.7,1c0.8-0.2,1.2-1,1-1.7c-0.2-0.8-1-1.2-1.7-1l0,0C50.7,26.8,50.3,27.5,50.5,28.3z
		"/>
	<path class="st8" d="M52.6,34.9c0.1,0.6,0.7,0.9,1.2,0.7c0.6-0.1,0.9-0.7,0.7-1.2c-0.1-0.6-0.7-0.9-1.2-0.7
		C52.8,33.8,52.5,34.4,52.6,34.9L52.6,34.9z"/>
	<path class="st8" d="M54.4,40.1c0.1,0.3,0.4,0.5,0.8,0.4c0.3-0.1,0.5-0.4,0.4-0.8c-0.1-0.3-0.4-0.5-0.8-0.4l0,0
		C54.5,39.4,54.3,39.7,54.4,40.1z"/>
	<path class="st9" d="M42.9,24.3c1-0.6,1.3-1.8,0.8-2.8c-0.5-1-1.8-1.3-2.8-0.8c-1,0.6-1.3,1.8-0.8,2.8l0,0
		C40.6,24.5,41.9,24.8,42.9,24.3z"/>
	<path class="st9" d="M46.9,31.3c0.6-0.3,0.8-1.1,0.5-1.7s-1.1-0.8-1.7-0.5c-0.6,0.3-0.8,1.1-0.5,1.7l0,0
		C45.6,31.4,46.3,31.6,46.9,31.3L46.9,31.3z"/>
	<path class="st9" d="M50.3,37.1c0.5-0.3,0.6-0.8,0.3-1.3s-0.8-0.6-1.3-0.3c-0.5,0.3-0.6,0.8-0.3,1.3l0,0
		C49.2,37.2,49.8,37.3,50.3,37.1L50.3,37.1z"/>
	<path class="st9" d="M53,40.7c-0.2-0.3-0.5-0.3-0.8-0.2C52,40.6,51.9,41,52,41.2c0.2,0.3,0.5,0.3,0.7,0.2
		C53,41.3,53.1,40.9,53,40.7z"/>
	<path class="st10" d="M36.6,28.9c0.7-0.7,0.7-1.9,0-2.7c-0.7-0.7-1.9-0.7-2.7,0c-0.7,0.7-0.7,1.9,0,2.7l0,0
		C34.7,29.6,35.9,29.6,36.6,28.9z"/>
	<path class="st10" d="M42.4,33.1c-0.4-0.4-1.1-0.4-1.5,0c-0.4,0.4-0.4,1.1,0,1.5c0.4,0.4,1.1,0.4,1.5,0l0,0
		C42.8,34.2,42.8,33.5,42.4,33.1z"/>
	<path class="st10" d="M47.1,38.2c-0.3-0.3-0.9-0.3-1.2,0s-0.3,0.9,0,1.2c0.3,0.3,0.9,0.3,1.2,0C47.4,39.1,47.4,38.5,47.1,38.2
		L47.1,38.2z"/>
	<path class="st10" d="M50.7,42.3c-0.2-0.2-0.5-0.2-0.6,0c-0.2,0.2-0.2,0.5,0,0.6c0.2,0.1,0.5,0.2,0.6,0
		C50.9,42.8,50.9,42.5,50.7,42.3z"/>
	<path class="st11" d="M29.4,35.6c0.8,0.5,1.9,0.2,2.4-0.6c0.5-0.8,0.2-1.9-0.6-2.4c-0.8-0.5-1.9-0.2-2.4,0.6l0,0
		C28.3,34,28.6,35.1,29.4,35.6z"/>
	<path class="st11" d="M38.4,37.8c-0.5-0.3-1-0.1-1.3,0.3c-0.3,0.5-0.1,1,0.3,1.3c0.5,0.3,1,0.1,1.3-0.3
		C39,38.6,38.8,38.1,38.4,37.8z"/>
	<path class="st11" d="M44.4,41.4c-0.4-0.2-0.9-0.1-1.1,0.3s-0.1,0.9,0.3,1.1c0.4,0.2,0.9,0.1,1.1-0.3
		C44.9,42.1,44.7,41.6,44.4,41.4L44.4,41.4z"/>
	<path class="st12" d="M89.5,46.2c-2.1,0-3.8,1.7-3.8,3.8c0,2.1,1.7,3.8,3.8,3.8c2.1,0,3.8-1.7,3.8-3.8
		C93.3,47.9,91.6,46.2,89.5,46.2L89.5,46.2z"/>
	<path class="st12" d="M83.3,50c0-1.5-1.2-2.7-2.7-2.7s-2.7,1.2-2.7,2.7c0,1.5,1.2,2.7,2.7,2.7l0,0C82.1,52.6,83.3,51.4,83.3,50z"/>
	<path class="st12" d="M73.6,48.2c-1,0-1.8,0.8-1.8,1.8c0,1,0.8,1.8,1.8,1.8c1,0,1.8-0.8,1.8-1.8C75.5,49,74.6,48.2,73.6,48.2z"/>
	<path class="st13" d="M69.5,50c0-0.7-0.5-1.2-1.2-1.2s-1.2,0.5-1.2,1.2c0,0.7,0.5,1.2,1.2,1.2l0,0C69,51.1,69.5,50.6,69.5,50
		L69.5,50z"/>
	<path class="st14" d="M89.3,54.8c-1.8-0.5-3.7,0.6-4.2,2.4c-0.5,1.8,0.6,3.7,2.4,4.2c1.8,0.5,3.7-0.6,4.2-2.4l0,0
		C92.3,57.2,91.1,55.3,89.3,54.8z"/>
	<path class="st14" d="M79.2,58.1c1.2,0.3,2.5-0.4,2.9-1.7c0.3-1.2-0.4-2.5-1.7-2.9c-1.2-0.3-2.5,0.4-2.9,1.7
		C77.2,56.5,77.9,57.7,79.2,58.1L79.2,58.1z"/>
	<path class="st14" d="M72.6,55.7c0.9,0.3,1.9-0.3,2.1-1.2c0.3-0.9-0.3-1.9-1.2-2.1c-0.9-0.3-1.9,0.3-2.1,1.2
		C71.1,54.5,71.7,55.4,72.6,55.7L72.6,55.7z"/>
	<path class="st14" d="M67.6,53.7c0.6,0.2,1.2-0.2,1.3-0.8c0.2-0.6-0.2-1.2-0.8-1.3c-0.6-0.2-1.2,0.2-1.3,0.8
		C66.7,52.9,67.1,53.5,67.6,53.7L67.6,53.7z"/>
	<path class="st15" d="M86.8,63.1c-1.5-0.9-3.4-0.3-4.3,1.2c-0.9,1.5-0.3,3.4,1.2,4.3c1.5,0.9,3.4,0.3,4.3-1.2
		C88.8,65.9,88.3,64,86.8,63.1z"/>
	<path class="st15" d="M79.4,62.4c0.6-1.1,0.3-2.4-0.8-3c-1.1-0.6-2.4-0.3-3,0.8s-0.3,2.4,0.8,3l0,0C77.5,63.9,78.8,63.5,79.4,62.4z
		"/>
	<path class="st15" d="M72.8,58.6c0.4-0.8,0.2-1.7-0.6-2.1c-0.8-0.4-1.7-0.2-2.1,0.6c-0.4,0.8-0.2,1.7,0.6,2.1l0,0
		C71.4,59.6,72.4,59.4,72.8,58.6z"/>
	<path class="st15" d="M67.8,55.6c0.3-0.5,0.1-1.1-0.4-1.4c-0.5-0.3-1.1-0.1-1.4,0.4s-0.1,1.1,0.4,1.4l0,0
		C66.9,56.3,67.5,56.1,67.8,55.6z"/>
	<path class="st16" d="M78.2,70.4c-1.1,1.1-1.1,2.9,0,4c1.1,1.1,2.9,1.1,4,0c1.1-1.1,1.1-2.9,0-4C81.1,69.3,79.3,69.3,78.2,70.4z"/>
	<path class="st16" d="M75.3,67.5c0.8-0.8,0.8-2.1,0-2.9c-0.8-0.8-2.1-0.8-2.9,0c-0.8,0.8-0.8,2.1,0,2.9
		C73.2,68.3,74.5,68.3,75.3,67.5L75.3,67.5z"/>
	<path class="st16" d="M70,62.1c0.6-0.6,0.6-1.5,0-2c-0.6-0.6-1.5-0.6-2,0c-0.6,0.6-0.6,1.5,0,2C68.6,62.7,69.5,62.7,70,62.1
		L70,62.1z"/>
	<path class="st16" d="M64.5,58c0.4,0.4,1,0.4,1.3,0c0.4-0.4,0.4-1,0-1.3c-0.4-0.4-1-0.4-1.3,0l0,0C64.2,57,64.2,57.6,64.5,58
		L64.5,58z"/>
	<path class="st17" d="M72.3,75.1c-1.3,0.7-1.7,2.4-1,3.6c0.7,1.3,2.4,1.7,3.6,1c1.2-0.7,1.7-2.4,1-3.6l0,0
		C75.2,74.8,73.5,74.4,72.3,75.1L72.3,75.1z"/>
	<path class="st17" d="M70.7,68.8c-0.5-0.9-1.7-1.2-2.6-0.7c-0.9,0.5-1.2,1.7-0.7,2.6c0.5,0.9,1.7,1.2,2.6,0.7
		C70.9,70.8,71.3,69.7,70.7,68.8L70.7,68.8z"/>
	<path class="st17" d="M66.3,64.8c0.6-0.3,0.8-1.1,0.5-1.7c-0.3-0.6-1.1-0.8-1.7-0.5s-0.8,1.1-0.5,1.7C65,64.9,65.7,65.1,66.3,64.8
		L66.3,64.8z"/>
	<path class="st17" d="M62.6,58.2c-0.4,0.2-0.6,0.8-0.3,1.2c0.2,0.4,0.8,0.6,1.2,0.3c0.4-0.2,0.6-0.8,0.3-1.2S63,58,62.6,58.2
		L62.6,58.2z"/>
	<path class="st18" d="M65.3,78.2c-1.3,0.4-2.1,1.7-1.8,3.1c0.4,1.3,1.7,2.1,3.1,1.8c1.3-0.4,2.1-1.7,1.8-3.1l0,0
		C68.1,78.6,66.7,77.8,65.3,78.2L65.3,78.2z"/>
	<path class="st18" d="M64.1,73.6c0.9-0.3,1.5-1.2,1.2-2.1c-0.3-0.9-1.2-1.5-2.1-1.2c-0.9,0.3-1.5,1.2-1.2,2.1
		C62.3,73.4,63.2,73.9,64.1,73.6C64.1,73.7,64.1,73.7,64.1,73.6z"/>
	<path class="st18" d="M63,64.9c-0.2-0.6-0.8-1-1.4-0.8c-0.6,0.2-1,0.8-0.8,1.4s0.8,1,1.4,0.8C62.8,66.2,63.2,65.6,63,64.9
		C63,65,63,65,63,64.9z"/>
	<path class="st18" d="M61.2,59.8c-0.1-0.4-0.6-0.7-1-0.6c-0.4,0.1-0.7,0.6-0.6,1c0.1,0.4,0.5,0.7,1,0.6
		C61.1,60.7,61.3,60.2,61.2,59.8L61.2,59.8z"/>
	<path class="st19" d="M57.7,79.4c-1.3,0-2.4,1.1-2.4,2.4s1.1,2.4,2.4,2.4c1.3,0,2.4-1,2.4-2.4C60.1,80.4,59.1,79.4,57.7,79.4
		L57.7,79.4z"/>
	<path class="st19" d="M56.2,72.8c0,0.9,0.7,1.6,1.6,1.6s1.6-0.7,1.6-1.6s-0.7-1.6-1.6-1.6l0,0C56.9,71.2,56.2,71.9,56.2,72.8z"/>
	<path class="st19" d="M57.7,66.9c0.6,0,1.1-0.5,1.1-1.1s-0.5-1.1-1.1-1.1s-1.1,0.5-1.1,1.1C56.7,66.4,57.1,66.9,57.7,66.9
		L57.7,66.9z"/>
	<path class="st19" d="M57.7,59.7c-0.4,0-0.7,0.3-0.7,0.7c0,0.4,0.3,0.7,0.7,0.7c0.4,0,0.7-0.3,0.7-0.7l0,0
		C58.5,60,58.1,59.7,57.7,59.7z"/>
	<path class="st20" d="M50.1,78.5c-1.2-0.3-2.4,0.4-2.7,1.5c-0.3,1.2,0.4,2.4,1.5,2.7c1.2,0.3,2.4-0.4,2.7-1.5
		C51.9,80,51.2,78.8,50.1,78.5L50.1,78.5z"/>
	<path class="st20" d="M52.2,70.6c-0.8-0.2-1.5,0.3-1.7,1c-0.2,0.8,0.3,1.5,1,1.7c0.8,0.2,1.5-0.3,1.7-1
		C53.4,71.6,52.9,70.8,52.2,70.6z"/>
	<path class="st20" d="M53.9,64.2c-0.6-0.1-1.1,0.2-1.2,0.7c-0.1,0.6,0.2,1.1,0.7,1.2c0.6,0.1,1.1-0.2,1.2-0.7l0,0
		C54.8,65,54.4,64.4,53.9,64.2L53.9,64.2z"/>
	<path class="st20" d="M55.6,60.2c0.1-0.3-0.1-0.7-0.4-0.8c-0.3-0.1-0.7,0.1-0.8,0.4c-0.1,0.3,0.1,0.7,0.4,0.8l0,0
		C55.2,60.7,55.6,60.5,55.6,60.2z"/>
	<path class="st21" d="M42.9,75.6c-1-0.6-2.2-0.2-2.8,0.7c-0.6,1-0.2,2.2,0.7,2.8c1,0.6,2.2,0.2,2.8-0.7
		C44.2,77.5,43.8,76.2,42.9,75.6L42.9,75.6z"/>
	<path class="st21" d="M46.9,68.6c-0.6-0.3-1.4-0.1-1.7,0.5s-0.1,1.4,0.5,1.7c0.6,0.3,1.4,0.1,1.7-0.5l0,0
		C47.7,69.7,47.5,68.9,46.9,68.6L46.9,68.6z"/>
	<path class="st21" d="M49.3,64.5c0.5,0.3,1,0.1,1.3-0.3c0.3-0.4,0.1-1-0.3-1.3c-0.5-0.3-1-0.1-1.3,0.3l0,0
		C48.7,63.6,48.9,64.2,49.3,64.5z"/>
	<path class="st21" d="M52.8,58.5c-0.3-0.2-0.6-0.1-0.7,0.2c-0.2,0.3-0.1,0.6,0.2,0.7c0.3,0.2,0.6,0.1,0.7-0.2
		C53.1,59,53,58.6,52.8,58.5L52.8,58.5z"/>
	<path class="st22" d="M33.9,71c-0.7,0.7-0.7,1.9,0,2.7c0.7,0.8,1.9,0.7,2.7,0c0.7-0.7,0.7-1.9,0-2.7l0,0
		C35.9,70.3,34.7,70.3,33.9,71z"/>
	<path class="st22" d="M40.8,65.3c-0.4,0.4-0.4,1.1,0,1.5c0.4,0.4,1.1,0.4,1.5,0c0.4-0.4,0.4-1.1,0-1.5l0,0
		C41.9,64.8,41.2,64.8,40.8,65.3L40.8,65.3z"/>
	<path class="st22" d="M45.9,60.5c-0.3,0.3-0.3,0.9,0,1.2c0.3,0.3,0.9,0.3,1.2,0c0.3-0.3,0.3-0.9,0-1.2
		C46.8,60.1,46.2,60.1,45.9,60.5L45.9,60.5z"/>
	<path class="st22" d="M50.7,56.9c-0.2-0.2-0.5-0.2-0.6,0c-0.2,0.2-0.2,0.5,0,0.6c0.2,0.2,0.5,0.2,0.6,0
		C50.9,57.4,50.9,57.1,50.7,56.9z"/>
	<path class="st23" d="M29.4,64.3c-0.8,0.5-1.1,1.5-0.6,2.4c0.5,0.8,1.5,1.1,2.4,0.6c0.8-0.5,1.1-1.5,0.6-2.4
		C31.2,64.1,30.2,63.8,29.4,64.3L29.4,64.3z"/>
	<path class="st23" d="M37.5,60.5c-0.4,0.3-0.6,0.8-0.3,1.3c0.3,0.4,0.8,0.6,1.3,0.3c0.4-0.3,0.6-0.8,0.3-1.3
		C38.5,60.4,37.9,60.2,37.5,60.5L37.5,60.5z"/>
	<path class="st23" d="M43.6,57.1c-0.4,0.2-0.5,0.7-0.3,1.1c0.2,0.4,0.7,0.5,1.1,0.3c0.4-0.2,0.5-0.7,0.3-1.1
		C44.4,57,44,56.9,43.6,57.1L43.6,57.1z"/>
	<path class="st24" d="M25.9,44.5h2.8V55h-2.8V44.5z M27.6,39.8c-0.9-0.2-1.7,0.3-2,1.1c-0.3,0.8,0.3,1.7,1.1,2
		c0.8,0.3,1.7-0.3,2-1.1C29,40.9,28.5,40,27.6,39.8L27.6,39.8L27.6,39.8z M37.1,55.3c-0.7,0-1.3-0.1-2-0.4c-0.6-0.3-1-0.6-1.4-1.1
		v6.6H31v-16h2.7V46c0.3-0.5,0.8-0.9,1.4-1.2c0.6-0.3,1.3-0.5,2-0.5s1.3,0.1,1.9,0.4c0.6,0.3,1.2,0.6,1.6,1.1
		c0.5,0.5,0.9,1.1,1.1,1.8c0.3,0.7,0.4,1.5,0.4,2.3s-0.1,1.6-0.4,2.3c-0.3,0.6-0.7,1.2-1.2,1.8C39.7,54.8,38.5,55.3,37.1,55.3
		L37.1,55.3z M36.6,52.7c0.4,0,0.8-0.1,1.2-0.2c0.3-0.2,0.7-0.4,0.9-0.6c0.3-0.3,0.5-0.6,0.6-0.9c0.3-0.8,0.3-1.6,0-2.4
		c-0.1-0.3-0.4-0.7-0.6-0.9c-0.3-0.3-0.6-0.5-0.9-0.6C37.4,47,37,47,36.6,47c-0.8,0-1.5,0.3-2.1,0.9c-0.3,0.3-0.5,0.6-0.6,0.9
		c-0.3,0.8-0.3,1.6,0,2.3c0.1,0.3,0.3,0.7,0.6,0.9C35,52.4,35.8,52.7,36.6,52.7L36.6,52.7z M44.2,44.5h2.7v1.6
		c0.2-0.6,0.6-1.1,1.2-1.4c0.6-0.3,1.2-0.5,1.8-0.4c0.3,0,0.7,0,1,0.1c0.3,0.1,0.6,0.2,0.8,0.3l-1,2.7c-0.2-0.1-0.4-0.2-0.6-0.3
		C49.8,47,49.5,47,49.3,47c-0.6,0-1.2,0.2-1.7,0.6c-0.4,0.4-0.6,1-0.6,1.9V55h-2.7L44.2,44.5z M57.6,55.3c-0.8,0-1.5-0.1-2.2-0.4
		c-0.7-0.3-1.3-0.7-1.8-1.2c-1-1-1.6-2.4-1.6-3.9c0-0.7,0.1-1.5,0.4-2.2c0.3-0.7,0.7-1.3,1.2-1.8c2.2-2.2,5.8-2.2,8,0
		c1,1,1.6,2.4,1.6,3.9c0,0.7-0.1,1.5-0.4,2.1c-0.3,0.7-0.7,1.3-1.2,1.8s-1.1,0.9-1.8,1.2C59.2,55.1,58.4,55.3,57.6,55.3L57.6,55.3z
		 M57.7,52.7c0.4,0,0.8-0.1,1.2-0.2c0.3-0.2,0.6-0.4,0.9-0.6c0.3-0.3,0.5-0.6,0.6-0.9c0.3-0.8,0.3-1.6,0-2.3
		c-0.1-0.3-0.3-0.7-0.6-0.9c-0.3-0.3-0.6-0.5-0.9-0.6c-0.7-0.3-1.6-0.3-2.3,0c-0.3,0.2-0.6,0.4-0.9,0.6c-0.3,0.3-0.5,0.6-0.6,0.9
		c-0.3,0.8-0.3,1.6,0,2.3c0.1,0.3,0.3,0.7,0.6,0.9c0.3,0.2,0.6,0.5,0.9,0.6C56.9,52.6,57.3,52.7,57.7,52.7L57.7,52.7z M6.7,44.5h2.8
		l2.1,6.8l2.5-6.8h2.4l2.5,6.8l2.2-6.8H24L20.4,55h-2.6l-2.5-6.9L12.7,55h-2.6L6.7,44.5z"/>
</g>
</svg>
