<?xml version="1.0" encoding="utf-8"?>
<!-- Generator: Adobe Illustrator 23.0.0, SVG Export Plug-In . SVG Version: 6.00 Build 0)  -->
<svg version="1.1" id="图层_1" xmlns="http://www.w3.org/2000/svg" xmlns:xlink="http://www.w3.org/1999/xlink" x="0px" y="0px"
	 viewBox="0 0 200 200" style="enable-background:new 0 0 200 200;" xml:space="preserve">
<style type="text/css">
	.st0{fill:#F85F69;}
	.st1{fill:#FFFFFF;}
	.st2{fill:#F33B3D;}
</style>
<path class="st0" d="M154.1,186.1H47.3c-13.4,0-24.3-10.9-24.3-24.3V97c0-13.4,10.9-24.3,24.3-24.3h106.9
	c13.4,0,24.3,10.9,24.3,24.3v64.7C178.5,175.2,167.6,186.1,154.1,186.1L154.1,186.1z"/>
<path class="st1" d="M100.7,96.7c-10.9,0-19.7,8.8-19.7,19.7c0,7.2,3.9,13.9,10.3,17.3c3,1.6,4.8,4.7,4.8,8.1v12.2
	c0,2.5,2.1,4.6,4.6,4.6c2.5,0,4.6-2.1,4.6-4.6v-12.2c0-3.4,1.9-6.5,4.8-8.1c6.4-3.5,10.3-10.1,10.3-17.3
	C120.4,105.6,111.6,96.7,100.7,96.7L100.7,96.7z"/>
<path class="st0" d="M145.5,95.5c-4.4,0-8-3.6-8-8V67c0-20.2-16.5-36.7-36.7-36.7S64.1,46.8,64.1,67v20.5c0,4.4-3.6,8-8,8
	s-8-3.6-8-8V67c0-29,23.6-52.7,52.7-52.7S153.5,38,153.5,67v20.5C153.5,91.9,149.9,95.5,145.5,95.5z"/>
<path class="st2" d="M56.1,95.5c4.4,0,8-3.6,8-8V72.7h-16v14.8C48.1,91.9,51.7,95.5,56.1,95.5z M137.5,72.7v14.8c0,4.4,3.6,8,8,8
	c4.4,0,8-3.6,8-8V72.7H137.5L137.5,72.7z"/>
</svg>
