<?xml version="1.0" encoding="utf-8"?>
<!-- Generator: Adobe Illustrator 23.0.0, SVG Export Plug-In . SVG Version: 6.00 Build 0)  -->
<svg version="1.1" id="图层_1" xmlns="http://www.w3.org/2000/svg" xmlns:xlink="http://www.w3.org/1999/xlink" x="0px" y="0px"
	 viewBox="0 0 169.6 125.8" style="enable-background:new 0 0 169.6 125.8;" xml:space="preserve">
<style type="text/css">
	.st0{fill:#C9C9C9;}
</style>
<g>
	<path class="st0" d="M144.6,50.3c0.9,3.1,4.2,5,7.3,4.2s5-4.2,4.2-7.3c-0.9-3.1-4.2-5-7.3-4.2l0,0C145.7,43.6,143.8,47,144.6,50.3z
		"/>
	<path class="st0" d="M136.4,56.5c2.1-0.5,3.5-2.8,3-5c-0.5-2.1-2.8-3.5-5-3c-2.1,0.5-3.5,2.8-3,5l0,0
		C131.9,55.8,134.2,57.2,136.4,56.5z"/>
	<path class="st0" d="M124.4,58.6c1.6-0.5,2.6-2.1,2.1-3.7c-0.5-1.6-2.1-2.6-3.7-2.1c-1.6,0.5-2.6,2.1-2.1,3.7l0,0
		C121.1,58.1,122.9,59.1,124.4,58.6z"/>
	<path class="st0" d="M115,60.2c1-0.3,1.6-1.4,1.4-2.3c-0.2-1-1.4-1.6-2.3-1.4c-1,0.3-1.6,1.4-1.4,2.3C113,59.7,114,60.4,115,60.2z"
		/>
	<path class="st0" d="M140.1,38.1c1.6,2.6,4.9,3.5,7.5,2.1c2.6-1.6,3.5-4.9,2.1-7.5c-1.6-2.6-4.9-3.5-7.5-2.1l0,0
		C139.6,32,138.7,35.5,140.1,38.1z"/>
	<path class="st0" d="M128.1,44.9c1,1.9,3.3,2.4,5.2,1.4c1.9-1,2.4-3.3,1.4-5.2c-1-1.9-3.3-2.4-5.2-1.4l0,0
		C127.7,40.7,127,43.1,128.1,44.9z"/>
	<path class="st0" d="M119.6,46.8c-1.4,0.7-1.7,2.4-1,3.7c0.7,1.4,2.4,1.7,3.7,1c1.4-0.7,1.7-2.4,1-3.7l0,0
		C122.5,46.4,120.8,46.1,119.6,46.8z"/>
	<path class="st0" d="M111.9,52.3c-0.9,0.5-1.2,1.6-0.7,2.4c0.5,0.9,1.6,1.2,2.4,0.7c0.9-0.5,1.2-1.6,0.7-2.4l0,0
		C113.8,52.2,112.6,51.8,111.9,52.3z"/>
	<path class="st0" d="M139.6,27.3c1.9-1.9,1.9-5,0-7c-1.9-1.9-5-1.9-7,0s-1.9,5,0,7S137.7,29.2,139.6,27.3L139.6,27.3z"/>
	<path class="st0" d="M127.6,32.3c-1.4-1.4-3.7-1.4-5,0s-1.4,3.7,0,5s3.7,1.4,5,0l0,0C129,36,129,33.7,127.6,32.3z"/>
	<path class="st0" d="M114.7,41.7c-1,1-1,2.6,0,3.5c1,1,2.6,1,3.5,0c1-1,1-2.6,0-3.5C117.3,40.7,115.7,40.7,114.7,41.7z"/>
	<path class="st0" d="M108.6,51.1c0.7,0.7,1.7,0.7,2.3,0c0.7-0.7,0.7-1.7,0-2.3c-0.7-0.7-1.7-0.7-2.3,0
		C108.1,49.6,108.1,50.6,108.6,51.1L108.6,51.1z"/>
	<path class="st0" d="M122.4,19.1c2.3,1.2,5,0.5,6.3-1.7s0.5-5-1.7-6.3c-2.3-1.2-5-0.5-6.3,1.7l0,0
		C119.2,14.9,120.1,17.7,122.4,19.1C122.2,19.1,122.4,19.1,122.4,19.1z"/>
	<path class="st0" d="M114,26.9c-0.9,1.6-0.3,3.7,1.2,4.5c1.6,0.9,3.7,0.3,4.5-1.2c0.9-1.6,0.3-3.7-1.2-4.5
		C116.8,24.7,114.9,25.4,114,26.9L114,26.9z"/>
	<path class="st0" d="M111.7,37c-1-0.5-2.4-0.2-3,0.9c-0.5,1-0.2,2.4,0.9,3c1,0.5,2.4,0.2,3-0.9C113.1,39.1,112.8,37.7,111.7,37z"/>
	<path class="st0" d="M106.7,45.9c-0.7-0.3-1.6-0.2-2.1,0.5c-0.3,0.7-0.2,1.6,0.5,2.1c0.7,0.5,1.6,0.2,2.1-0.5
		C107.7,47.1,107.4,46.3,106.7,45.9L106.7,45.9z"/>
	<path class="st0" d="M110,13.7c2.3,0.7,4.7-0.7,5.4-3.1c0.7-2.3-0.7-4.7-3.1-5.4c-2.3-0.5-4.7,0.7-5.4,3.1l0,0
		C106.3,10.8,107.7,13,110,13.7z"/>
	<path class="st0" d="M106.3,27.5c1.6,0.5,3.3-0.5,3.7-2.1c0.5-1.6-0.5-3.3-2.1-3.7c-1.6-0.5-3.3,0.5-3.7,2.1l0,0
		C103.9,25.4,104.8,26.9,106.3,27.5z"/>
	<path class="st0" d="M103.6,38.3c1,0.3,2.3-0.3,2.4-1.4c0.3-1-0.3-2.3-1.4-2.4c-1-0.3-2.3,0.3-2.4,1.4
		C101.8,36.9,102.3,37.9,103.6,38.3z"/>
	<path class="st0" d="M100.2,45c-0.2,0.7,0.2,1.6,1,1.7c0.7,0.2,1.6-0.2,1.7-1c0.2-0.7-0.2-1.6-1-1.7l0,0
		C101.3,43.8,100.4,44.3,100.2,45z"/>
	<path class="st0" d="M96.8,11.6c2.3,0,4.2-1.9,4.2-4.2s-1.9-4-4.2-4c-2.3,0-4.2,1.9-4.2,4.2l0,0C92.8,9.9,94.7,11.6,96.8,11.6
		L96.8,11.6z"/>
	<path class="st0" d="M96.8,20.5c-1.6,0-2.8,1.2-2.8,2.8s1.2,2.8,2.8,2.8s2.8-1.2,2.8-2.8l0,0C99.6,21.7,98.3,20.5,96.8,20.5z"/>
	<path class="st0" d="M98.7,35.3c0-1-0.9-1.9-1.9-1.9c-1,0-1.9,0.9-1.9,1.9c0,1,0.9,1.9,1.9,1.9l0,0C98,37.2,98.7,36.3,98.7,35.3
		L98.7,35.3z"/>
	<path class="st0" d="M96.8,43.5c-0.7,0-1.2,0.5-1.2,1.2c0,0.7,0.5,1.2,1.2,1.2c0.7,0,1.2-0.5,1.2-1.2l0,0
		C98.2,44,97.5,43.5,96.8,43.5z"/>
	<path class="st0" d="M83.5,13.2c2.1-0.5,3.3-2.6,2.6-4.7c-0.5-2.1-2.6-3.3-4.7-2.6c-2.1,0.7-3.3,2.6-2.6,4.7l0,0
		C79.4,12.5,81.5,13.7,83.5,13.2z"/>
	<path class="st0" d="M84.2,25.2c0.3,1.4,1.7,2.1,3,1.7c1.4-0.3,2.1-1.7,1.7-3c-0.3-1.4-1.7-2.1-3-1.7l0,0
		C84.6,22.6,83.9,23.8,84.2,25.2z"/>
	<path class="st0" d="M87.9,36.7c0.2,1,1.2,1.6,2.1,1.2c1-0.2,1.6-1.2,1.2-2.1c-0.2-1-1.2-1.6-2.1-1.2
		C88.2,34.8,87.7,35.8,87.9,36.7L87.9,36.7z"/>
	<path class="st0" d="M91,45.7c0.2,0.5,0.7,0.9,1.4,0.7c0.5-0.2,0.9-0.7,0.7-1.4c-0.2-0.5-0.7-0.9-1.4-0.7l0,0
		C91.2,44.5,90.9,45,91,45.7z"/>
	<path class="st0" d="M71,18.2c1.7-1,2.3-3.1,1.4-4.9c-0.9-1.7-3.1-2.3-4.9-1.4c-1.7,1-2.3,3.1-1.4,4.9l0,0
		C67,18.6,69.3,19.1,71,18.2z"/>
	<path class="st0" d="M78,30.4c1-0.5,1.4-1.9,0.9-3c-0.5-1-1.9-1.4-3-0.9c-1,0.5-1.4,1.9-0.9,3l0,0C75.7,30.6,76.9,30.9,78,30.4
		L78,30.4z"/>
	<path class="st0" d="M83.9,40.5c0.9-0.5,1-1.4,0.5-2.3s-1.4-1-2.3-0.5c-0.9,0.5-1,1.4-0.5,2.3l0,0C82,40.7,83,40.9,83.9,40.5
		L83.9,40.5z"/>
	<path class="st0" d="M88.6,46.8c-0.3-0.5-0.9-0.5-1.4-0.3c-0.3,0.2-0.5,0.9-0.3,1.2c0.3,0.5,0.9,0.5,1.2,0.3
		C88.6,47.8,88.8,47.1,88.6,46.8z"/>
	<path class="st0" d="M60.1,26.2c1.2-1.2,1.2-3.3,0-4.7c-1.2-1.2-3.3-1.2-4.7,0c-1.2,1.2-1.2,3.3,0,4.7l0,0
		C56.7,27.5,58.8,27.5,60.1,26.2z"/>
	<path class="st0" d="M70.1,33.6c-0.7-0.7-1.9-0.7-2.6,0c-0.7,0.7-0.7,1.9,0,2.6c0.7,0.7,1.9,0.7,2.6,0l0,0
		C70.8,35.5,70.8,34.2,70.1,33.6z"/>
	<path class="st0" d="M78.3,42.4c-0.5-0.5-1.6-0.5-2.1,0s-0.5,1.6,0,2.1s1.6,0.5,2.1,0C78.8,44,78.8,43,78.3,42.4L78.3,42.4z"/>
	<path class="st0" d="M84.6,49.6c-0.3-0.3-0.9-0.3-1,0c-0.3,0.3-0.3,0.9,0,1c0.3,0.2,0.9,0.3,1,0C84.9,50.4,84.9,49.9,84.6,49.6z"/>
	<path class="st0" d="M47.3,37.9c1.4,0.9,3.3,0.3,4.2-1c0.9-1.4,0.3-3.3-1-4.2c-1.4-0.9-3.3-0.3-4.2,1l0,0
		C45.4,35.1,46,37,47.3,37.9z"/>
	<path class="st0" d="M63.2,41.7c-0.9-0.5-1.7-0.2-2.3,0.5c-0.5,0.9-0.2,1.7,0.5,2.3c0.9,0.5,1.7,0.2,2.3-0.5
		C64.2,43.1,63.9,42.3,63.2,41.7z"/>
	<path class="st0" d="M73.6,48c-0.7-0.3-1.6-0.2-1.9,0.5c-0.3,0.7-0.2,1.6,0.5,1.9c0.7,0.3,1.6,0.2,1.9-0.5
		C74.5,49.2,74.1,48.3,73.6,48L73.6,48z"/>
	<path class="st0" d="M152.3,56.4c-3.7,0-6.6,3-6.6,6.6c0,3.7,3,6.6,6.6,6.6s6.6-3,6.6-6.6C158.9,59.3,155.9,56.4,152.3,56.4
		L152.3,56.4z"/>
	<path class="st0" d="M141.5,63c0-2.6-2.1-4.7-4.7-4.7c-2.6,0-4.7,2.1-4.7,4.7c0,2.6,2.1,4.7,4.7,4.7l0,0
		C139.4,67.7,141.5,65.6,141.5,63z"/>
	<path class="st0" d="M124.6,59.8c-1.7,0-3.1,1.4-3.1,3.1s1.4,3.1,3.1,3.1c1.7,0,3.1-1.4,3.1-3.1C127.9,61.2,126.4,59.8,124.6,59.8z
		"/>
	<path class="st0" d="M117.3,63c0-1.2-0.9-2.1-2.1-2.1s-2.1,0.9-2.1,2.1c0,1.2,0.9,2.1,2.1,2.1l0,0C116.4,65.1,117.3,64.2,117.3,63
		L117.3,63z"/>
	<path class="st0" d="M151.9,71.5c-3.1-0.9-6.4,1-7.3,4.2s1,6.4,4.2,7.3c3.1,0.9,6.4-1,7.3-4.2l0,0
		C157.2,75.7,155.1,72.4,151.9,71.5z"/>
	<path class="st0" d="M134.4,77.2c2.1,0.5,4.4-0.7,5-3c0.5-2.1-0.7-4.4-3-5c-2.1-0.5-4.4,0.7-5,3C130.9,74.4,132.1,76.5,134.4,77.2
		L134.4,77.2z"/>
	<path class="st0" d="M122.9,73.1c1.6,0.5,3.3-0.5,3.7-2.1c0.5-1.6-0.5-3.3-2.1-3.7c-1.6-0.5-3.3,0.5-3.7,2.1
		C120.3,71,121.3,72.5,122.9,73.1L122.9,73.1z"/>
	<path class="st0" d="M114,69.6c1,0.3,2.1-0.3,2.3-1.4c0.3-1-0.3-2.1-1.4-2.3c-1-0.3-2.1,0.3-2.3,1.4
		C112.4,68.2,113.1,69.2,114,69.6L114,69.6z"/>
	<path class="st0" d="M147.6,85.9c-2.6-1.6-5.9-0.5-7.5,2.1s-0.5,5.9,2.1,7.5c2.6,1.6,5.9,0.5,7.5-2.1
		C151.1,90.8,150.2,87.5,147.6,85.9z"/>
	<path class="st0" d="M134.7,84.7c1-1.9,0.5-4.2-1.4-5.2c-1.9-1-4.2-0.5-5.2,1.4c-1,1.9-0.5,4.2,1.4,5.2l0,0
		C131.4,87.3,133.7,86.6,134.7,84.7z"/>
	<path class="st0" d="M123.2,78.1c0.7-1.4,0.3-3-1-3.7c-1.4-0.7-3-0.3-3.7,1c-0.7,1.4-0.3,3,1,3.7l0,0
		C120.8,79.8,122.5,79.5,123.2,78.1z"/>
	<path class="st0" d="M114.3,72.9c0.5-0.9,0.2-1.9-0.7-2.4c-0.9-0.5-1.9-0.2-2.4,0.7c-0.5,0.9-0.2,1.9,0.7,2.4l0,0
		C112.8,74.1,113.8,73.8,114.3,72.9z"/>
	<path class="st0" d="M132.6,98.6c-1.9,1.9-1.9,5,0,7c1.9,1.9,5,1.9,7,0c1.9-1.9,1.9-5,0-7C137.7,96.7,134.5,96.7,132.6,98.6z"/>
	<path class="st0" d="M127.6,93.6c1.4-1.4,1.4-3.7,0-5c-1.4-1.4-3.7-1.4-5,0s-1.4,3.7,0,5S126.2,95,127.6,93.6L127.6,93.6z"/>
	<path class="st0" d="M118.2,84.2c1-1,1-2.6,0-3.5c-1-1-2.6-1-3.5,0c-1,1-1,2.6,0,3.5C115.7,85.2,117.3,85.2,118.2,84.2L118.2,84.2z
		"/>
	<path class="st0" d="M108.6,77.1c0.7,0.7,1.7,0.7,2.3,0c0.7-0.7,0.7-1.7,0-2.3c-0.7-0.7-1.7-0.7-2.3,0l0,0
		C108.1,75.3,108.1,76.4,108.6,77.1L108.6,77.1z"/>
	<path class="st0" d="M122.4,106.8c-2.3,1.2-3,4.2-1.7,6.3c1.2,2.3,4.2,3,6.3,1.7c2.1-1.2,3-4.2,1.7-6.3l0,0
		C127.4,106.3,124.4,105.6,122.4,106.8L122.4,106.8z"/>
	<path class="st0" d="M119.6,95.9c-0.9-1.6-3-2.1-4.5-1.2c-1.6,0.9-2.1,3-1.2,4.5c0.9,1.6,3,2.1,4.5,1.2
		C119.9,99.3,120.6,97.4,119.6,95.9L119.6,95.9z"/>
	<path class="st0" d="M111.7,88.9c1-0.5,1.4-1.9,0.9-3c-0.5-1-1.9-1.4-3-0.9c-1,0.5-1.4,1.9-0.9,3C109.5,89.1,110.7,89.4,111.7,88.9
		L111.7,88.9z"/>
	<path class="st0" d="M105.3,77.4c-0.7,0.3-1,1.4-0.5,2.1c0.3,0.7,1.4,1,2.1,0.5c0.7-0.3,1-1.4,0.5-2.1S106,77.1,105.3,77.4
		L105.3,77.4z"/>
	<path class="st0" d="M110,112.2c-2.3,0.7-3.7,3-3.1,5.4c0.7,2.3,3,3.7,5.4,3.1c2.3-0.7,3.7-3,3.1-5.4l0,0
		C114.9,112.9,112.4,111.5,110,112.2L110,112.2z"/>
	<path class="st0" d="M107.9,104.2c1.6-0.5,2.6-2.1,2.1-3.7c-0.5-1.6-2.1-2.6-3.7-2.1c-1.6,0.5-2.6,2.1-2.1,3.7
		C104.8,103.9,106.3,104.7,107.9,104.2C107.9,104.4,107.9,104.4,107.9,104.2z"/>
	<path class="st0" d="M106,89.1c-0.3-1-1.4-1.7-2.4-1.4c-1,0.3-1.7,1.4-1.4,2.4c0.3,1,1.4,1.7,2.4,1.4
		C105.6,91.3,106.3,90.3,106,89.1C106,89.2,106,89.2,106,89.1z"/>
	<path class="st0" d="M102.9,80.2c-0.2-0.7-1-1.2-1.7-1c-0.7,0.2-1.2,1-1,1.7c0.2,0.7,0.9,1.2,1.7,1C102.7,81.8,103,80.9,102.9,80.2
		L102.9,80.2z"/>
	<path class="st0" d="M96.8,114.3c-2.3,0-4.2,1.9-4.2,4.2s1.9,4.2,4.2,4.2c2.3,0,4.2-1.7,4.2-4.2C100.9,116,99.2,114.3,96.8,114.3
		L96.8,114.3z"/>
	<path class="st0" d="M94.2,102.8c0,1.6,1.2,2.8,2.8,2.8s2.8-1.2,2.8-2.8s-1.2-2.8-2.8-2.8l0,0C95.4,100,94.2,101.2,94.2,102.8z"/>
	<path class="st0" d="M96.8,92.5c1,0,1.9-0.9,1.9-1.9c0-1-0.9-1.9-1.9-1.9c-1,0-1.9,0.9-1.9,1.9C95,91.7,95.7,92.5,96.8,92.5
		L96.8,92.5z"/>
	<path class="st0" d="M96.8,80c-0.7,0-1.2,0.5-1.2,1.2c0,0.7,0.5,1.2,1.2,1.2c0.7,0,1.2-0.5,1.2-1.2l0,0C98.2,80.5,97.5,80,96.8,80z
		"/>
	<path class="st0" d="M83.5,112.7c-2.1-0.5-4.2,0.7-4.7,2.6c-0.5,2.1,0.7,4.2,2.6,4.7c2.1,0.5,4.2-0.7,4.7-2.6
		C86.7,115.3,85.5,113.3,83.5,112.7L83.5,112.7z"/>
	<path class="st0" d="M87.2,99c-1.4-0.3-2.6,0.5-3,1.7c-0.3,1.4,0.5,2.6,1.7,3c1.4,0.3,2.6-0.5,3-1.7C89.3,100.7,88.4,99.3,87.2,99z
		"/>
	<path class="st0" d="M90.2,87.8c-1-0.2-1.9,0.3-2.1,1.2c-0.2,1,0.3,1.9,1.2,2.1c1,0.2,1.9-0.3,2.1-1.2l0,0
		C91.7,89.2,91,88.2,90.2,87.8L90.2,87.8z"/>
	<path class="st0" d="M93.1,80.9c0.2-0.5-0.2-1.2-0.7-1.4c-0.5-0.2-1.2,0.2-1.4,0.7c-0.2,0.5,0.2,1.2,0.7,1.4l0,0
		C92.4,81.8,93.1,81.4,93.1,80.9z"/>
	<path class="st0" d="M71,107.7c-1.7-1-3.8-0.3-4.9,1.2c-1,1.7-0.3,3.8,1.2,4.9c1.7,1,3.8,0.3,4.9-1.2C73.3,111,72.6,108.7,71,107.7
		L71,107.7z"/>
	<path class="st0" d="M78,95.5c-1-0.5-2.4-0.2-3,0.9c-0.5,1-0.2,2.4,0.9,3s2.4,0.2,3-0.9l0,0C79.4,97.4,79,96,78,95.5L78,95.5z"/>
	<path class="st0" d="M82.2,88.4c0.9,0.5,1.7,0.2,2.3-0.5c0.5-0.7,0.2-1.7-0.5-2.3c-0.9-0.5-1.7-0.2-2.3,0.5l0,0
		C81.1,86.8,81.5,87.8,82.2,88.4z"/>
	<path class="st0" d="M88.2,77.9c-0.5-0.3-1-0.2-1.2,0.3c-0.3,0.5-0.2,1,0.3,1.2c0.5,0.3,1,0.2,1.2-0.3
		C88.8,78.8,88.6,78.1,88.2,77.9L88.2,77.9z"/>
	<path class="st0" d="M55.4,99.7c-1.2,1.2-1.2,3.3,0,4.7c1.2,1.4,3.3,1.2,4.7,0c1.2-1.2,1.2-3.3,0-4.7l0,0
		C58.8,98.5,56.7,98.5,55.4,99.7z"/>
	<path class="st0" d="M67.4,89.8c-0.7,0.7-0.7,1.9,0,2.6c0.7,0.7,1.9,0.7,2.6,0c0.7-0.7,0.7-1.9,0-2.6l0,0
		C69.3,88.9,68.1,88.9,67.4,89.8L67.4,89.8z"/>
	<path class="st0" d="M76.2,81.4c-0.5,0.5-0.5,1.6,0,2.1c0.5,0.5,1.6,0.5,2.1,0c0.5-0.5,0.5-1.6,0-2.1
		C77.8,80.7,76.8,80.7,76.2,81.4L76.2,81.4z"/>
	<path class="st0" d="M84.6,75.1c-0.3-0.3-0.9-0.3-1,0c-0.3,0.3-0.3,0.9,0,1c0.3,0.3,0.9,0.3,1,0C84.9,76,84.9,75.5,84.6,75.1z"/>
	<path class="st0" d="M47.3,88c-1.4,0.9-1.9,2.6-1,4.2c0.9,1.4,2.6,1.9,4.2,1c1.4-0.9,1.9-2.6,1-4.2C50.7,87.7,48.9,87.2,47.3,88
		L47.3,88z"/>
	<path class="st0" d="M61.6,81.4c-0.7,0.5-1,1.4-0.5,2.3c0.5,0.7,1.4,1,2.3,0.5c0.7-0.5,1-1.4,0.5-2.3
		C63.4,81.2,62.3,80.9,61.6,81.4L61.6,81.4z"/>
	<path class="st0" d="M72.2,75.5c-0.7,0.3-0.9,1.2-0.5,1.9c0.3,0.7,1.2,0.9,1.9,0.5s0.9-1.2,0.5-1.9C73.6,75.3,72.9,75.1,72.2,75.5
		L72.2,75.5z"/>
	<path class="st0" d="M41.3,53.4h4.9v18.4h-4.9V53.4z M44.2,45.2c-1.6-0.3-3,0.5-3.5,1.9s0.5,3,1.9,3.5s3-0.5,3.5-1.9
		C46.7,47.1,45.8,45.6,44.2,45.2L44.2,45.2L44.2,45.2z M60.9,72.4c-1.2,0-2.3-0.2-3.5-0.7c-1-0.5-1.7-1-2.4-1.9v11.5h-4.7V53.4H55
		V56c0.5-0.9,1.4-1.6,2.4-2.1c1-0.5,2.3-0.9,3.5-0.9s2.3,0.2,3.3,0.7c1,0.5,2.1,1,2.8,1.9c0.9,0.9,1.6,1.9,1.9,3.1
		c0.5,1.2,0.7,2.6,0.7,4s-0.2,2.8-0.7,4c-0.5,1-1.2,2.1-2.1,3.1C65.4,71.5,63.4,72.4,60.9,72.4L60.9,72.4z M60.1,67.8
		c0.7,0,1.4-0.2,2.1-0.3c0.5-0.3,1.2-0.7,1.6-1c0.5-0.5,0.9-1,1-1.6c0.5-1.4,0.5-2.8,0-4.2c-0.2-0.5-0.7-1.2-1-1.6
		c-0.5-0.5-1-0.9-1.6-1c-0.7-0.3-1.4-0.3-2.1-0.3c-1.4,0-2.6,0.5-3.7,1.6c-0.5,0.5-0.9,1-1,1.6c-0.5,1.4-0.5,2.8,0,4
		c0.2,0.5,0.5,1.2,1,1.6C57.3,67.3,58.7,67.8,60.1,67.8L60.1,67.8z M73.3,53.4H78v2.8c0.3-1,1-1.9,2.1-2.4c1-0.5,2.1-0.9,3.1-0.7
		c0.5,0,1.2,0,1.7,0.2c0.5,0.2,1,0.3,1.4,0.5l-1.7,4.7c-0.3-0.2-0.7-0.3-1-0.5c-0.5-0.2-1-0.2-1.4-0.2c-1,0-2.1,0.3-3,1
		c-0.7,0.7-1,1.7-1,3.3v9.7h-4.7L73.3,53.4z M96.6,72.4c-1.4,0-2.6-0.2-3.8-0.7c-1.2-0.5-2.3-1.2-3.1-2.1c-1.7-1.7-2.8-4.2-2.8-6.8
		c0-1.2,0.2-2.6,0.7-3.8s1.2-2.3,2.1-3.1c3.8-3.8,10.1-3.8,13.9,0c1.7,1.7,2.8,4.2,2.8,6.8c0,1.2-0.2,2.6-0.7,3.7
		c-0.5,1.2-1.2,2.3-2.1,3.1c-0.9,0.9-1.9,1.6-3.1,2.1C99.4,72,98,72.4,96.6,72.4L96.6,72.4z M96.8,67.8c0.7,0,1.4-0.2,2.1-0.3
		c0.5-0.3,1-0.7,1.6-1c0.5-0.5,0.9-1,1-1.6c0.5-1.4,0.5-2.8,0-4c-0.2-0.5-0.5-1.2-1-1.6c-0.5-0.5-1-0.9-1.6-1c-1.2-0.5-2.8-0.5-4,0
		c-0.5,0.3-1,0.7-1.6,1c-0.5,0.5-0.9,1-1,1.6c-0.5,1.4-0.5,2.8,0,4c0.2,0.5,0.5,1.2,1,1.6c0.5,0.3,1,0.9,1.6,1S96.1,67.8,96.8,67.8
		L96.8,67.8z M7.8,53.4h4.9l3.7,11.8l4.4-11.8h4.2l4.4,11.8l3.8-11.8H38l-6.3,18.4h-4.5l-4.4-12l-4.5,12h-4.5L7.8,53.4z"/>
</g>
</svg>
