<?xml version="1.0" encoding="utf-8"?>
<!-- Generator: Adobe Illustrator 23.0.0, SVG Export Plug-In . SVG Version: 6.00 Build 0)  -->
<svg version="1.1" id="图层_1" xmlns="http://www.w3.org/2000/svg" xmlns:xlink="http://www.w3.org/1999/xlink" x="0px" y="0px"
	 viewBox="0 0 200 200" style="enable-background:new 0 0 200 200;" xml:space="preserve">
<style type="text/css">
	.st0{fill:#F85F69;}
	.st1{fill:#F33B3D;}
</style>
<g>
	<path class="st0" d="M151.3,33.3c-2.6-5.8-8.4-9.8-15.2-9.8H87c-9.2,0-16.7,7.5-16.7,16.7v54.4v16v46.9c0,9.2,7.5,16.7,16.7,16.7
		h49.1c8.3,0,15.2-6,16.5-14c0.1-0.9,0.2-1.8,0.2-2.7V40.1C152.8,37.7,152.2,35.4,151.3,33.3z"/>
	<path class="st0" d="M111.6,110.5H31.2c-3,0-5.8-1.7-7.1-4.4c-1.4-2.7-1.1-5.9,0.7-8.4l12.3-16.6c2.6-3.5,7.6-4.3,11.2-1.7
		c3.6,2.6,4.3,7.6,1.7,11.2l-2.8,3.8h64.5c4.4,0,8,3.6,8,8S116,110.5,111.6,110.5z"/>
	<path class="st1" d="M119.6,102.5c0,4.4-3.4,8-7.6,8H70.3v-16h41.7C116.2,94.5,119.6,98.1,119.6,102.5z"/>
	<path class="st1" d="M146.8,176.5h-32.2c-4.9,0-8.9-4-8.9-8.9V44.9c0-4.9,4-8.9,8.9-8.9h32.2c4.9,0,8.9,4,8.9,8.9v122.8
		C155.8,172.5,151.8,176.5,146.8,176.5z"/>
</g>
</svg>
