<?xml version="1.0" encoding="utf-8"?>
<!-- Generator: Adobe Illustrator 23.0.0, SVG Export Plug-In . SVG Version: 6.00 Build 0)  -->
<svg version="1.1" id="图层_1" xmlns="http://www.w3.org/2000/svg" xmlns:xlink="http://www.w3.org/1999/xlink" x="0px" y="0px"
	 viewBox="0 0 506.3 125.8" style="enable-background:new 0 0 506.3 125.8;" xml:space="preserve">
<style type="text/css">
	.st0{fill:#D2AB67;}
	.st1{enable-background:new    ;}
	.st2{fill:#1E2531;}
	.st3{opacity:0.8;enable-background:new    ;}
</style>
<g>
	<path class="st0" d="M56.2,93.5c-1.1-2.5-4.2-4.4-7.4-20.9c-3.2,16.5-6.3,18.4-7.4,20.9c-5.8,10.3,7.4,23.8,7.4,23.8
		S61.9,103.8,56.2,93.5z"/>
	<path class="st0" d="M119.5,64.9c0-15.9-6.7-31.3-18.4-42.1S73.3,6.4,57.3,7.8c-16.1,1.3-31.1,9.8-40.9,22.7
		C6.4,43.7,2.6,60.9,6.1,77.1c3.6,16.4,14.5,30.7,29.3,38.5c1.8,1,3.7,1.8,5.6,2.6c-0.2-0.4-0.6-0.7-0.9-1c-0.5-0.5-0.9-1.1-1.2-1.7
		c-0.8-1.2-1.6-2.5-2.3-3.8c-1.3-2.4-2.4-4.9-3.2-7.5c-1.5-4.7-2.4-9.5-2.6-14.4c-0.2-3.9,0-7.9,0.6-11.8c0.8-5.3,2.7-10.1,5.9-14.3
		c3.5-4.5,8-8.7,13.5-10.6c4.6-1.6,9.6-1.9,14.3-1c2.8,0.5,5,1.3,7.3,3.1c3.8,2.9,6.7,7.2,6.9,12.1c0.1,5.2-2.4,10.1-6.3,13.4
		c-2,1.7-4.2,2.9-6.7,3.7c-1.3,0.4-2.6,0.7-3.9,0.8c-1.3,0.1-2.7-0.1-3.9-0.1c6.1,6.6,12.2,13.2,18.3,19.8c1,1.1,2.1,2.2,3.1,3.3
		c2,2.3,4.3,4,7.4,4.6c2,0.4,4.1,0.3,6-0.2c2.3-0.7,4-2,5.8-3.5c4.1-3.4,7.7-7.5,10.7-11.9C116,87.6,119.5,76.4,119.5,64.9z"/>
</g>
<g class="st1">
	<path class="st2" d="M186.9,73.3h-13.8c-3.1-4.8-5.8-8.9-8.3-12.4c-2.5-3.5-5.1-7.1-8-10.8h-5.3v16.3c0,0.8,0.1,1.6,0.4,2.2
		c0.3,0.6,0.8,1.1,1.7,1.5c0.4,0.2,1.2,0.3,2.3,0.5s2,0.2,2.7,0.3v2.6h-21.7v-2.6c0.6,0,1.4-0.1,2.5-0.3c1.1-0.1,1.9-0.3,2.3-0.5
		c0.7-0.3,1.2-0.8,1.6-1.4c0.3-0.6,0.5-1.4,0.5-2.3V29.2c0-0.8-0.1-1.6-0.4-2.2c-0.2-0.7-0.8-1.1-1.7-1.5c-0.6-0.2-1.4-0.4-2.3-0.6
		c-1-0.2-1.8-0.3-2.5-0.3V22h23.7c2.2,0,4.2,0.2,6.1,0.7c1.9,0.4,3.6,1.2,5.2,2.2c1.5,1,2.7,2.2,3.6,3.8c0.9,1.6,1.3,3.4,1.3,5.6
		c0,2-0.3,3.7-0.9,5.2s-1.5,2.8-2.7,3.9c-1.1,1-2.4,1.9-3.9,2.7c-1.5,0.8-3.2,1.4-5,1.9c2.5,3.3,4.6,6.2,6.3,8.5
		c1.7,2.3,3.7,5.1,6.2,8.3c1.1,1.4,2,2.5,2.9,3.2s1.7,1.2,2.5,1.7c0.6,0.3,1.4,0.6,2.3,0.7c0.9,0.2,1.7,0.3,2.3,0.3V73.3z
		 M167.9,35.1c0-3.1-0.9-5.6-2.7-7.4c-1.8-1.8-4.3-2.7-7.6-2.7h-6.1v22h4.7c3.3,0,6.1-1.1,8.3-3.2C166.8,41.6,167.9,38.7,167.9,35.1
		z"/>
	<path class="st2" d="M219.6,64.9c-1.5,2.8-3.5,5.1-6,6.8c-2.5,1.7-5.4,2.5-8.6,2.5c-2.9,0-5.4-0.5-7.5-1.5c-2.2-1-3.9-2.4-5.3-4.1
		c-1.4-1.7-2.4-3.8-3.1-6.1c-0.7-2.3-1-4.8-1-7.3c0-2.3,0.4-4.6,1.1-6.8c0.7-2.2,1.8-4.2,3.2-6c1.4-1.7,3.1-3.1,5.1-4.1
		c2-1,4.3-1.6,6.8-1.6c2.6,0,4.8,0.4,6.7,1.2c1.9,0.8,3.4,1.9,4.5,3.4c1.1,1.3,1.9,2.9,2.5,4.8c0.5,1.8,0.8,3.8,0.8,6v2.4h-23.6
		c0,2.3,0.2,4.5,0.7,6.4c0.4,1.9,1.1,3.6,2.1,5c0.9,1.4,2.2,2.5,3.7,3.3c1.5,0.8,3.3,1.2,5.4,1.2c2.1,0,4-0.5,5.5-1.5
		c1.6-1,3.1-2.8,4.5-5.4L219.6,64.9z M211.6,51.3c0-1.3-0.1-2.8-0.3-4.3c-0.2-1.5-0.6-2.8-1.1-3.9c-0.6-1.1-1.3-2-2.3-2.7
		c-1-0.7-2.2-1-3.7-1c-2.5,0-4.6,1.1-6.3,3.2c-1.7,2.1-2.6,5-2.7,8.8H211.6z"/>
	<path class="st2" d="M240.4,73.3H223v-2.4c0.6,0,1.1-0.1,1.8-0.2c0.6-0.1,1.1-0.2,1.6-0.3c0.7-0.2,1.2-0.6,1.5-1.1s0.5-1.2,0.5-2.1
		V25.9c0-0.9-0.2-1.7-0.6-2.4c-0.4-0.8-0.9-1.4-1.5-1.8c-0.4-0.3-1.2-0.6-2.4-0.8c-1.2-0.2-2.1-0.4-2.8-0.4v-2.3l13.4-0.8l0.5,0.5
		v48.9c0,0.8,0.2,1.5,0.5,2.1c0.3,0.5,0.8,1,1.5,1.2c0.5,0.2,1.1,0.4,1.6,0.5c0.5,0.1,1.1,0.2,1.8,0.3V73.3z"/>
	<path class="st2" d="M262.1,73.3h-17.2v-2.4c0.6,0,1.1-0.1,1.7-0.1c0.6,0,1.1-0.1,1.5-0.3c0.7-0.2,1.2-0.6,1.5-1.1
		c0.3-0.5,0.5-1.2,0.5-2.1v-22c0-0.8-0.2-1.5-0.5-2.1c-0.3-0.6-0.8-1.2-1.5-1.6c-0.5-0.3-1.1-0.5-2-0.7c-0.9-0.2-1.7-0.3-2.4-0.4V38
		l12.6-0.8l0.5,0.5v29c0,0.8,0.2,1.5,0.5,2.1c0.3,0.6,0.8,1,1.5,1.2c0.5,0.2,1,0.4,1.5,0.5c0.5,0.1,1.1,0.2,1.7,0.3V73.3z
		 M257.6,23.2c0,1.4-0.5,2.6-1.4,3.6s-2,1.5-3.3,1.5c-1.2,0-2.3-0.5-3.2-1.5s-1.4-2.1-1.4-3.3c0-1.3,0.5-2.5,1.4-3.5
		c0.9-1,2-1.5,3.2-1.5c1.4,0,2.5,0.5,3.4,1.4C257.2,20.9,257.6,21.9,257.6,23.2z"/>
	<path class="st2" d="M300.3,72.6c-1.1,0.4-2.1,0.7-3,1c-0.9,0.3-1.8,0.4-2.9,0.4c-1.9,0-3.4-0.4-4.5-1.3c-1.1-0.9-1.8-2.2-2.2-3.8
		h-0.2c-1.6,1.7-3.2,3.1-5,4s-4,1.4-6.5,1.4c-2.7,0-4.9-0.8-6.6-2.5c-1.7-1.6-2.6-3.8-2.6-6.4c0-1.4,0.2-2.6,0.6-3.7
		c0.4-1.1,1-2.1,1.7-2.9c0.6-0.7,1.4-1.4,2.4-1.9c1-0.6,1.9-1,2.8-1.4c1.1-0.4,3.3-1.2,6.6-2.3c3.3-1.1,5.5-2,6.7-2.6v-3.6
		c0-0.3-0.1-0.9-0.2-1.8c-0.1-0.9-0.4-1.7-0.8-2.5c-0.5-0.9-1.2-1.7-2-2.3c-0.9-0.7-2.1-1-3.7-1c-1.1,0-2.1,0.2-3.1,0.6
		c-1,0.4-1.6,0.8-2,1.2c0,0.5,0.1,1.2,0.3,2.1c0.2,0.9,0.3,1.8,0.3,2.6c0,0.8-0.4,1.6-1.1,2.3c-0.8,0.7-1.8,1-3.2,1
		c-1.2,0-2.1-0.4-2.7-1.3c-0.6-0.9-0.8-1.8-0.8-2.9c0-1.1,0.4-2.2,1.2-3.2c0.8-1,1.8-1.9,3.1-2.7c1.1-0.7,2.4-1.2,3.9-1.7
		c1.5-0.5,3-0.7,4.5-0.7c2,0,3.8,0.1,5.3,0.4c1.5,0.3,2.9,0.9,4.1,1.8c1.2,0.9,2.2,2.1,2.8,3.6c0.6,1.5,1,3.5,1,5.9
		c0,3.4,0,6.5-0.1,9.2c-0.1,2.7-0.1,5.6-0.1,8.7c0,0.9,0.2,1.7,0.5,2.2c0.3,0.6,0.8,1,1.5,1.4c0.4,0.2,0.9,0.3,1.7,0.4
		c0.8,0,1.6,0,2.4,0V72.6z M287.7,53.6c-2,0.6-3.8,1.2-5.4,1.8c-1.5,0.6-3,1.3-4.3,2.2c-1.2,0.8-2.2,1.8-2.9,2.9c-0.7,1.1-1,2.5-1,4
		c0,2,0.5,3.5,1.6,4.4c1,0.9,2.4,1.4,4,1.4c1.7,0,3.2-0.4,4.5-1.2s2.4-1.8,3.3-3L287.7,53.6z"/>
	<path class="st2" d="M343.2,73.3h-17.4v-2.4c0.6,0,1.2-0.1,1.8-0.1c0.7,0,1.2-0.1,1.6-0.3c0.7-0.2,1.2-0.6,1.5-1.1s0.5-1.2,0.5-2.1
		V48.9c0-2.5-0.6-4.5-1.8-5.9c-1.2-1.4-2.7-2.1-4.4-2.1c-1.3,0-2.5,0.2-3.5,0.6s-2,0.9-2.8,1.5c-0.8,0.6-1.4,1.2-1.9,1.8
		c-0.5,0.6-0.8,1.2-1,1.5v20.5c0,0.8,0.2,1.5,0.5,2c0.3,0.5,0.8,0.9,1.5,1.2c0.5,0.2,1.1,0.4,1.6,0.5c0.6,0.1,1.2,0.2,1.8,0.3v2.4
		h-17.5v-2.4c0.6,0,1.1-0.1,1.7-0.1c0.6,0,1.1-0.1,1.5-0.3c0.7-0.2,1.2-0.6,1.5-1.1c0.3-0.5,0.5-1.2,0.5-2.1v-22
		c0-0.8-0.2-1.6-0.5-2.3c-0.3-0.7-0.8-1.2-1.5-1.7c-0.5-0.3-1-0.5-1.6-0.6c-0.6-0.1-1.3-0.2-2-0.3V38l11.8-0.8l0.5,0.5v5h0.2
		c0.6-0.6,1.3-1.3,2.2-2.1c0.9-0.8,1.7-1.5,2.5-2c0.9-0.6,2-1.1,3.2-1.4c1.2-0.4,2.6-0.6,4.2-0.6c3.4,0,6,1.1,7.6,3.2
		c1.6,2.1,2.5,5,2.5,8.5v18.5c0,0.8,0.1,1.5,0.4,2c0.3,0.5,0.8,0.9,1.5,1.2c0.6,0.2,1.1,0.4,1.5,0.5c0.4,0.1,1,0.2,1.8,0.2V73.3z"/>
	<path class="st2" d="M364,74.2c-5.2,0-9.2-1.7-12.1-5.1c-2.9-3.4-4.4-8-4.4-13.8c0-2.5,0.4-4.8,1.2-7c0.8-2.2,1.9-4.2,3.4-5.9
		c1.4-1.7,3.2-3.1,5.3-4.1c2.1-1,4.5-1.6,7-1.6c3.5,0,6.3,0.8,8.5,2.5c2.2,1.7,3.3,4,3.3,6.8c0,1.2-0.3,2.3-0.9,3.2
		c-0.6,0.9-1.5,1.4-2.9,1.4c-1.4,0-2.5-0.4-3.3-1.1c-0.8-0.7-1.2-1.5-1.2-2.4c0-1.1,0.1-2.2,0.4-3.3c0.3-1.1,0.5-2,0.5-2.5
		c-0.4-0.7-1.1-1.2-1.9-1.5c-0.9-0.3-1.8-0.4-2.8-0.4c-1.2,0-2.3,0.2-3.3,0.7c-1,0.5-2.1,1.4-3,2.7c-0.9,1.2-1.6,2.8-2.2,4.9
		c-0.6,2-0.8,4.5-0.8,7.3c0,4.5,1,8.1,3,11c2,2.8,4.6,4.2,7.8,4.2c2.3,0,4.3-0.6,5.9-1.7c1.6-1.1,3-2.8,4.4-5.1l2.3,1.5
		c-1.6,2.8-3.7,5.1-6.3,6.8S366.8,74.2,364,74.2z"/>
	<path class="st2" d="M412.8,64.9c-1.5,2.8-3.5,5.1-6,6.8c-2.5,1.7-5.4,2.5-8.6,2.5c-2.9,0-5.4-0.5-7.5-1.5s-3.9-2.4-5.3-4.1
		c-1.4-1.7-2.4-3.8-3.1-6.1c-0.7-2.3-1-4.8-1-7.3c0-2.3,0.4-4.6,1.1-6.8c0.7-2.2,1.8-4.2,3.2-6c1.4-1.7,3.1-3.1,5.1-4.1
		c2-1,4.3-1.6,6.8-1.6c2.6,0,4.8,0.4,6.7,1.2c1.9,0.8,3.4,1.9,4.5,3.4c1.1,1.3,1.9,2.9,2.5,4.8c0.5,1.8,0.8,3.8,0.8,6v2.4h-23.6
		c0,2.3,0.2,4.5,0.7,6.4c0.4,1.9,1.2,3.6,2.1,5c0.9,1.4,2.2,2.5,3.7,3.3s3.3,1.2,5.4,1.2c2.1,0,4-0.5,5.5-1.5c1.6-1,3.1-2.8,4.5-5.4
		L412.8,64.9z M404.8,51.3c0-1.3-0.1-2.8-0.3-4.3c-0.2-1.5-0.6-2.8-1.1-3.9c-0.6-1.1-1.3-2-2.3-2.7c-1-0.7-2.2-1-3.7-1
		c-2.5,0-4.6,1.1-6.3,3.2c-1.7,2.1-2.6,5-2.7,8.8H404.8z"/>
</g>
<g class="st3">
	<path class="st2" d="M145.4,112.6h-10.6v-1.2c0.3,0,0.7-0.1,1.3-0.1c0.6,0,1-0.1,1.2-0.2c0.4-0.1,0.6-0.3,0.8-0.6s0.3-0.6,0.3-1
		V92.4c0-0.4-0.1-0.7-0.2-1c-0.1-0.3-0.4-0.5-0.9-0.7c-0.3-0.1-0.8-0.3-1.3-0.4c-0.5-0.1-0.9-0.2-1.2-0.2V89h10.6v1.2
		c-0.3,0-0.8,0.1-1.2,0.1c-0.5,0.1-0.9,0.2-1.2,0.3c-0.4,0.1-0.7,0.3-0.8,0.6c-0.1,0.3-0.2,0.6-0.2,1v17.1c0,0.4,0.1,0.7,0.2,1
		s0.4,0.5,0.8,0.7c0.2,0.1,0.6,0.2,1.1,0.3c0.5,0.1,1,0.2,1.3,0.2V112.6z"/>
	<path class="st2" d="M166,112.6h-8v-1.1c0.3,0,0.5,0,0.8-0.1s0.6-0.1,0.8-0.1c0.3-0.1,0.5-0.3,0.7-0.5c0.1-0.3,0.2-0.6,0.2-1v-8.4
		c0-1.2-0.3-2.1-0.8-2.7c-0.6-0.6-1.2-0.9-2-0.9c-0.6,0-1.1,0.1-1.6,0.3c-0.5,0.2-0.9,0.4-1.3,0.7c-0.4,0.3-0.7,0.5-0.9,0.8
		c-0.2,0.3-0.4,0.5-0.5,0.7v9.4c0,0.4,0.1,0.7,0.2,0.9c0.2,0.2,0.4,0.4,0.7,0.6c0.2,0.1,0.5,0.2,0.8,0.3s0.6,0.1,0.8,0.1v1.1h-8
		v-1.1c0.3,0,0.5,0,0.8-0.1s0.5-0.1,0.7-0.1c0.3-0.1,0.5-0.3,0.7-0.5c0.1-0.3,0.2-0.6,0.2-1V99.7c0-0.4-0.1-0.7-0.2-1
		c-0.2-0.3-0.4-0.6-0.7-0.8c-0.2-0.1-0.5-0.2-0.7-0.3c-0.3-0.1-0.6-0.1-0.9-0.1v-1.1l5.5-0.4l0.2,0.2v2.3h0.1c0.3-0.3,0.6-0.6,1-1
		c0.4-0.4,0.8-0.7,1.1-0.9c0.4-0.3,0.9-0.5,1.5-0.7s1.2-0.3,1.9-0.3c1.6,0,2.7,0.5,3.5,1.5c0.8,1,1.1,2.3,1.1,3.9v8.5
		c0,0.4,0.1,0.7,0.2,0.9c0.1,0.2,0.4,0.4,0.7,0.6c0.3,0.1,0.5,0.2,0.7,0.2c0.2,0,0.5,0.1,0.8,0.1V112.6z"/>
	<path class="st2" d="M186,112.3l-5.7,0.4l-0.3-0.2v-1.5l-0.1,0c-0.6,0.6-1.3,1.2-2.1,1.6c-0.8,0.4-1.7,0.6-2.6,0.6
		c-0.9,0-1.8-0.2-2.7-0.6s-1.6-1-2.3-1.8c-0.7-0.8-1.2-1.7-1.6-2.8c-0.4-1.1-0.6-2.3-0.6-3.6c0-1.2,0.2-2.3,0.6-3.4
		c0.4-1.1,1-2,1.7-2.8c0.7-0.7,1.5-1.3,2.5-1.8c1-0.4,2-0.7,3-0.7c0.8,0,1.5,0.1,2.3,0.3c0.7,0.2,1.4,0.4,1.9,0.7v-5.7
		c0-0.5-0.1-0.9-0.2-1.3c-0.2-0.4-0.4-0.7-0.6-0.9c-0.3-0.2-0.7-0.4-1.3-0.5c-0.5-0.1-1.1-0.2-1.7-0.2v-1l6.7-0.4l0.3,0.2v22.1
		c0,0.4,0.1,0.7,0.2,1s0.4,0.5,0.7,0.7c0.2,0.1,0.5,0.2,0.9,0.2s0.8,0.1,1.1,0.1V112.3z M180,109.4v-9.6c-0.1-0.3-0.2-0.6-0.4-0.9
		c-0.2-0.3-0.4-0.6-0.7-0.9c-0.3-0.3-0.7-0.5-1.1-0.7c-0.4-0.2-0.9-0.3-1.5-0.3c-0.7,0-1.3,0.2-1.8,0.5c-0.6,0.3-1.1,0.8-1.5,1.5
		c-0.4,0.6-0.7,1.4-1,2.4s-0.4,2-0.4,3.2c0,0.9,0.1,1.8,0.3,2.5c0.2,0.8,0.5,1.5,0.9,2.1c0.4,0.6,0.9,1.1,1.5,1.5s1.3,0.6,2.2,0.6
		c0.9,0,1.6-0.2,2.2-0.6S179.6,109.9,180,109.4z"/>
	<path class="st2" d="M205.2,112.3l-5.4,0.4l-0.3-0.2v-2.1h-0.1c-0.3,0.3-0.6,0.6-0.9,0.9s-0.7,0.6-1.1,0.9c-0.5,0.3-1,0.5-1.4,0.7
		c-0.5,0.2-1.1,0.2-2,0.2c-1.5,0-2.6-0.5-3.3-1.4c-0.8-0.9-1.1-2.3-1.1-4.1v-7.8c0-0.4-0.1-0.7-0.2-1s-0.4-0.5-0.7-0.7
		c-0.2-0.1-0.5-0.2-0.8-0.3c-0.3-0.1-0.6-0.1-1-0.1v-1.1l5.5-0.4l0.2,0.2v11.4c0,1.2,0.3,2.1,0.8,2.7c0.5,0.6,1.2,0.9,1.9,0.9
		c0.6,0,1.2-0.1,1.6-0.3s0.9-0.4,1.2-0.7c0.3-0.2,0.6-0.5,0.8-0.7c0.2-0.3,0.4-0.5,0.5-0.7v-9.3c0-0.4-0.1-0.7-0.2-1
		c-0.2-0.3-0.4-0.5-0.6-0.7c-0.2-0.1-0.5-0.2-0.9-0.2c-0.4,0-0.8-0.1-1.3-0.1v-1.1l6-0.4l0.3,0.2v13c0,0.4,0.1,0.7,0.2,1
		c0.2,0.3,0.4,0.5,0.6,0.7c0.2,0.1,0.4,0.2,0.7,0.2c0.3,0,0.6,0.1,0.9,0.1V112.3z"/>
	<path class="st2" d="M218.1,104.6c0.5,0.4,0.8,0.9,1,1.4c0.2,0.5,0.4,1.2,0.4,1.9c0,1.5-0.6,2.8-1.7,3.7c-1.1,1-2.6,1.4-4.4,1.4
		c-1,0-1.8-0.2-2.6-0.5c-0.8-0.3-1.4-0.7-1.7-0.9l-0.3,1.1h-1.2l-0.2-5.7h1.1c0.1,0.4,0.3,0.9,0.6,1.5s0.6,1.1,1,1.6
		c0.4,0.5,1,0.9,1.6,1.2s1.3,0.5,2,0.5c1.1,0,1.9-0.2,2.5-0.7c0.6-0.5,0.9-1.2,0.9-2.1c0-0.5-0.1-0.9-0.3-1.2
		c-0.2-0.3-0.5-0.6-0.8-0.9c-0.4-0.3-0.8-0.5-1.3-0.7s-1.1-0.4-1.8-0.6c-0.5-0.2-1.1-0.4-1.7-0.6c-0.6-0.3-1.2-0.6-1.6-1
		c-0.5-0.4-0.9-0.9-1.2-1.4c-0.3-0.6-0.5-1.2-0.5-2c0-1.3,0.5-2.5,1.5-3.4c1-0.9,2.3-1.4,4-1.4c0.6,0,1.3,0.1,2,0.3
		c0.7,0.2,1.2,0.4,1.6,0.6l0.4-0.9h1.2l0.2,5.3h-1.1c-0.2-1.2-0.7-2.1-1.5-2.9s-1.7-1.1-2.8-1.1c-0.9,0-1.6,0.2-2.1,0.7
		c-0.5,0.5-0.8,1-0.8,1.7c0,0.5,0.1,0.9,0.3,1.2s0.4,0.6,0.8,0.8c0.3,0.2,0.8,0.4,1.3,0.6s1.1,0.4,1.9,0.7c0.7,0.2,1.4,0.5,2.1,0.8
		S217.6,104.2,218.1,104.6z"/>
	<path class="st2" d="M232.1,111.9c-0.7,0.3-1.4,0.6-2,0.8c-0.6,0.2-1.4,0.3-2.4,0.3c-1.4,0-2.3-0.3-2.9-1c-0.6-0.7-0.8-1.7-0.8-2.9
		V97.9h-3v-1.6h3v-5.1h3v5.1h4.7v1.6h-4.7v9.2c0,0.7,0,1.3,0.1,1.7c0,0.5,0.2,0.9,0.4,1.2c0.2,0.3,0.4,0.6,0.8,0.7
		c0.4,0.2,0.8,0.2,1.4,0.2c0.3,0,0.7,0,1.2-0.1c0.5,0,0.9-0.1,1.1-0.2V111.9z"/>
	<path class="st2" d="M246.3,98.3c0,0.6-0.1,1.1-0.4,1.5s-0.7,0.7-1.3,0.7c-0.6,0-1.1-0.2-1.4-0.5c-0.3-0.3-0.5-0.7-0.5-1.1
		c0-0.2,0-0.5,0.1-0.7c0-0.2,0.1-0.4,0.1-0.6c-0.5,0-1.1,0.2-1.8,0.6s-1.3,1-1.8,1.8v9.6c0,0.4,0.1,0.7,0.2,0.9
		c0.2,0.2,0.4,0.4,0.7,0.5c0.3,0.1,0.6,0.2,1.1,0.3s0.8,0.1,1.1,0.1v1.1h-8.7v-1.1c0.3,0,0.5,0,0.8-0.1c0.3,0,0.5-0.1,0.7-0.1
		c0.3-0.1,0.5-0.3,0.7-0.5c0.1-0.3,0.2-0.6,0.2-1V99.7c0-0.3-0.1-0.7-0.2-1c-0.2-0.3-0.4-0.6-0.7-0.8c-0.2-0.1-0.5-0.2-0.7-0.3
		c-0.3-0.1-0.6-0.1-0.9-0.1v-1.1L239,96l0.2,0.2v2.3h0.1c0.7-0.9,1.5-1.6,2.3-2c0.8-0.5,1.6-0.7,2.3-0.7s1.3,0.2,1.7,0.7
		S246.3,97.6,246.3,98.3z"/>
	<path class="st2" d="M255.6,112.6h-7.9v-1.1c0.3,0,0.5,0,0.8-0.1c0.3,0,0.5-0.1,0.7-0.1c0.3-0.1,0.5-0.3,0.7-0.5
		c0.1-0.3,0.2-0.6,0.2-1V99.7c0-0.4-0.1-0.7-0.2-1c-0.2-0.3-0.4-0.5-0.7-0.7c-0.2-0.1-0.5-0.2-0.9-0.3c-0.4-0.1-0.8-0.2-1.1-0.2
		v-1.1L253,96l0.2,0.2v13.4c0,0.4,0.1,0.7,0.2,1c0.1,0.3,0.4,0.4,0.7,0.6c0.2,0.1,0.5,0.2,0.7,0.2c0.2,0.1,0.5,0.1,0.8,0.1V112.6z
		 M253.6,89.5c0,0.6-0.2,1.2-0.6,1.7c-0.4,0.5-0.9,0.7-1.5,0.7c-0.6,0-1.1-0.2-1.5-0.7s-0.6-1-0.6-1.5c0-0.6,0.2-1.1,0.6-1.6
		s0.9-0.7,1.5-0.7c0.6,0,1.2,0.2,1.6,0.6C253.4,88.5,253.6,89,253.6,89.5z"/>
	<path class="st2" d="M272.3,108.8c-0.7,1.3-1.6,2.4-2.8,3.1c-1.2,0.8-2.5,1.2-4,1.2c-1.3,0-2.5-0.2-3.5-0.7c-1-0.5-1.8-1.1-2.5-1.9
		c-0.6-0.8-1.1-1.7-1.4-2.8c-0.3-1.1-0.5-2.2-0.5-3.4c0-1.1,0.2-2.1,0.5-3.1s0.8-2,1.5-2.8c0.6-0.8,1.4-1.4,2.4-1.9
		c0.9-0.5,2-0.7,3.2-0.7c1.2,0,2.2,0.2,3.1,0.6c0.9,0.4,1.5,0.9,2.1,1.5c0.5,0.6,0.9,1.4,1.1,2.2c0.2,0.8,0.4,1.8,0.4,2.7v1.1H261
		c0,1.1,0.1,2.1,0.3,2.9c0.2,0.9,0.5,1.7,1,2.3c0.4,0.6,1,1.2,1.7,1.5c0.7,0.4,1.5,0.6,2.5,0.6c1,0,1.8-0.2,2.6-0.7s1.4-1.3,2.1-2.5
		L272.3,108.8z M268.6,102.5c0-0.6-0.1-1.3-0.2-2s-0.3-1.3-0.5-1.8c-0.3-0.5-0.6-0.9-1-1.2c-0.4-0.3-1-0.5-1.7-0.5
		c-1.2,0-2.1,0.5-2.9,1.5c-0.8,1-1.2,2.3-1.3,4H268.6z"/>
	<path class="st2" d="M285,104.6c0.5,0.4,0.8,0.9,1,1.4s0.4,1.2,0.4,1.9c0,1.5-0.6,2.8-1.7,3.7c-1.1,1-2.6,1.4-4.4,1.4
		c-1,0-1.8-0.2-2.6-0.5s-1.4-0.7-1.7-0.9l-0.3,1.1h-1.2l-0.2-5.7h1.1c0.1,0.4,0.3,0.9,0.6,1.5c0.3,0.6,0.6,1.1,1,1.6
		c0.4,0.5,1,0.9,1.6,1.2c0.6,0.3,1.3,0.5,2,0.5c1.1,0,1.9-0.2,2.5-0.7s0.9-1.2,0.9-2.1c0-0.5-0.1-0.9-0.3-1.2
		c-0.2-0.3-0.5-0.6-0.8-0.9c-0.4-0.3-0.8-0.5-1.3-0.7c-0.5-0.2-1.1-0.4-1.8-0.6c-0.5-0.2-1.1-0.4-1.7-0.6c-0.6-0.3-1.2-0.6-1.6-1
		c-0.5-0.4-0.9-0.9-1.2-1.4c-0.3-0.6-0.5-1.2-0.5-2c0-1.3,0.5-2.5,1.5-3.4c1-0.9,2.3-1.4,4-1.4c0.6,0,1.3,0.1,2,0.3
		c0.7,0.2,1.2,0.4,1.6,0.6l0.4-0.9h1.2l0.2,5.3h-1.1c-0.2-1.2-0.7-2.1-1.5-2.9c-0.8-0.7-1.7-1.1-2.8-1.1c-0.9,0-1.6,0.2-2.1,0.7
		c-0.5,0.5-0.8,1-0.8,1.7c0,0.5,0.1,0.9,0.3,1.2c0.2,0.3,0.4,0.6,0.8,0.8c0.3,0.2,0.8,0.4,1.3,0.6s1.1,0.4,1.9,0.7
		c0.7,0.2,1.4,0.5,2.1,0.8S284.6,104.2,285,104.6z"/>
	<path class="st2" d="M316.5,105.6l-0.5,7h-18.5v-1.2c0.3,0,0.7-0.1,1.2-0.1c0.5-0.1,0.9-0.1,1.1-0.2c0.3-0.1,0.6-0.4,0.7-0.6
		s0.2-0.6,0.2-1.1V92.5c0-0.4-0.1-0.7-0.2-1c-0.1-0.3-0.4-0.5-0.8-0.7c-0.3-0.1-0.6-0.3-1.1-0.4c-0.5-0.1-0.8-0.2-1.1-0.2V89h10v1.2
		c-0.3,0-0.7,0.1-1.2,0.2c-0.5,0.1-0.9,0.2-1.1,0.3c-0.4,0.1-0.6,0.4-0.8,0.7c-0.1,0.3-0.2,0.7-0.2,1v15.9c0,0.7,0,1.3,0.1,1.7
		c0.1,0.4,0.2,0.7,0.5,0.9c0.3,0.2,0.6,0.3,1.1,0.4c0.5,0.1,1.2,0.1,2.1,0.1c0.4,0,0.8,0,1.3,0c0.4,0,0.9-0.1,1.3-0.1
		c0.4-0.1,0.7-0.2,1.1-0.3c0.3-0.1,0.6-0.3,0.7-0.4c0.5-0.5,1-1.3,1.6-2.3c0.6-1,1-1.9,1.3-2.5H316.5z"/>
	<path class="st2" d="M325.6,112.6h-7.9v-1.1c0.3,0,0.5,0,0.8-0.1c0.3,0,0.5-0.1,0.7-0.1c0.3-0.1,0.5-0.3,0.7-0.5
		c0.1-0.3,0.2-0.6,0.2-1V99.7c0-0.4-0.1-0.7-0.2-1c-0.2-0.3-0.4-0.5-0.7-0.7c-0.2-0.1-0.5-0.2-0.9-0.3c-0.4-0.1-0.8-0.2-1.1-0.2
		v-1.1L323,96l0.2,0.2v13.4c0,0.4,0.1,0.7,0.2,1c0.1,0.3,0.4,0.4,0.7,0.6c0.2,0.1,0.5,0.2,0.7,0.2c0.2,0.1,0.5,0.1,0.8,0.1V112.6z
		 M323.6,89.5c0,0.6-0.2,1.2-0.6,1.7s-0.9,0.7-1.5,0.7c-0.6,0-1.1-0.2-1.5-0.7s-0.6-1-0.6-1.5c0-0.6,0.2-1.1,0.6-1.6
		s0.9-0.7,1.5-0.7c0.6,0,1.2,0.2,1.6,0.6C323.4,88.5,323.6,89,323.6,89.5z"/>
	<path class="st2" d="M355.8,112.6h-8v-1.1c0.3,0,0.5,0,0.8-0.1s0.5-0.1,0.7-0.1c0.3-0.1,0.5-0.3,0.7-0.5c0.1-0.3,0.2-0.6,0.2-1
		v-8.5c0-1.2-0.3-2-0.8-2.7c-0.5-0.6-1.2-0.9-2-0.9c-0.5,0-1.1,0.1-1.5,0.3c-0.5,0.2-0.9,0.4-1.3,0.7c-0.3,0.2-0.6,0.5-0.8,0.8
		c-0.2,0.3-0.4,0.5-0.5,0.7v9.5c0,0.4,0.1,0.7,0.2,1c0.1,0.3,0.4,0.4,0.7,0.6c0.3,0.1,0.5,0.2,0.7,0.2c0.2,0,0.5,0.1,0.8,0.1v1.1
		h-7.8v-1.1c0.3,0,0.5,0,0.7-0.1c0.2,0,0.5-0.1,0.7-0.1c0.3-0.1,0.5-0.3,0.7-0.5c0.2-0.3,0.2-0.6,0.2-1v-8.5c0-1.2-0.3-2-0.8-2.7
		c-0.5-0.6-1.2-0.9-2-0.9c-0.5,0-1.1,0.1-1.5,0.3c-0.5,0.2-0.9,0.4-1.3,0.7c-0.3,0.2-0.6,0.5-0.8,0.8c-0.2,0.3-0.4,0.5-0.5,0.7v9.4
		c0,0.4,0.1,0.7,0.2,0.9c0.2,0.3,0.4,0.5,0.7,0.6c0.2,0.1,0.5,0.2,0.7,0.3s0.5,0.1,0.8,0.1v1.1h-8v-1.1c0.3,0,0.5,0,0.8-0.1
		c0.3,0,0.5-0.1,0.7-0.1c0.3-0.1,0.5-0.3,0.7-0.5c0.1-0.3,0.2-0.6,0.2-1V99.6c0-0.4-0.1-0.7-0.2-1c-0.2-0.3-0.4-0.5-0.7-0.7
		c-0.2-0.1-0.5-0.2-0.8-0.3c-0.3-0.1-0.6-0.1-1-0.2v-1.1l5.5-0.4l0.2,0.2v2.3h0.1c0.3-0.3,0.6-0.6,1-1s0.8-0.7,1.1-0.9
		c0.4-0.3,0.9-0.5,1.5-0.7c0.6-0.2,1.2-0.3,1.9-0.3c1.1,0,2,0.3,2.7,0.9s1.3,1.3,1.6,2.1c0.4-0.4,0.8-0.7,1.1-1s0.7-0.6,1.2-0.9
		c0.4-0.3,0.9-0.5,1.5-0.7s1.2-0.3,1.9-0.3c1.4,0,2.5,0.5,3.3,1.4c0.8,0.9,1.2,2.3,1.2,4.2v8.3c0,0.4,0.1,0.7,0.2,1
		c0.1,0.3,0.4,0.4,0.7,0.6c0.3,0.1,0.5,0.2,0.8,0.2c0.3,0,0.5,0.1,0.8,0.1V112.6z"/>
	<path class="st2" d="M365.7,112.6h-7.9v-1.1c0.3,0,0.5,0,0.8-0.1c0.3,0,0.5-0.1,0.7-0.1c0.3-0.1,0.5-0.3,0.7-0.5
		c0.1-0.3,0.2-0.6,0.2-1V99.7c0-0.4-0.1-0.7-0.2-1c-0.2-0.3-0.4-0.5-0.7-0.7c-0.2-0.1-0.5-0.2-0.9-0.3c-0.4-0.1-0.8-0.2-1.1-0.2
		v-1.1L363,96l0.2,0.2v13.4c0,0.4,0.1,0.7,0.2,1c0.1,0.3,0.4,0.4,0.7,0.6c0.2,0.1,0.5,0.2,0.7,0.2c0.2,0.1,0.5,0.1,0.8,0.1V112.6z
		 M363.6,89.5c0,0.6-0.2,1.2-0.6,1.7s-0.9,0.7-1.5,0.7c-0.6,0-1.1-0.2-1.5-0.7s-0.6-1-0.6-1.5c0-0.6,0.2-1.1,0.6-1.6
		s0.9-0.7,1.5-0.7c0.6,0,1.2,0.2,1.6,0.6C363.4,88.5,363.6,89,363.6,89.5z"/>
	<path class="st2" d="M377.8,111.9c-0.7,0.3-1.4,0.6-2,0.8c-0.6,0.2-1.4,0.3-2.4,0.3c-1.4,0-2.3-0.3-2.9-1c-0.6-0.7-0.8-1.7-0.8-2.9
		V97.9h-3v-1.6h3v-5.1h3v5.1h4.7v1.6h-4.7v9.2c0,0.7,0,1.3,0.1,1.7c0,0.5,0.2,0.9,0.4,1.2c0.2,0.3,0.4,0.6,0.8,0.7
		c0.4,0.2,0.8,0.2,1.4,0.2c0.3,0,0.7,0,1.2-0.1s0.9-0.1,1.1-0.2V111.9z"/>
	<path class="st2" d="M394,108.8c-0.7,1.3-1.6,2.4-2.8,3.1c-1.2,0.8-2.5,1.2-4,1.2c-1.3,0-2.5-0.2-3.5-0.7c-1-0.5-1.8-1.1-2.5-1.9
		c-0.6-0.8-1.1-1.7-1.4-2.8c-0.3-1.1-0.5-2.2-0.5-3.4c0-1.1,0.2-2.1,0.5-3.1s0.8-2,1.5-2.8c0.6-0.8,1.4-1.4,2.4-1.9
		c0.9-0.5,2-0.7,3.2-0.7c1.2,0,2.2,0.2,3.1,0.6c0.9,0.4,1.5,0.9,2.1,1.5c0.5,0.6,0.9,1.4,1.1,2.2c0.2,0.8,0.4,1.8,0.4,2.7v1.1h-10.9
		c0,1.1,0.1,2.1,0.3,2.9c0.2,0.9,0.5,1.7,1,2.3c0.4,0.6,1,1.2,1.7,1.5c0.7,0.4,1.5,0.6,2.5,0.6c1,0,1.8-0.2,2.6-0.7s1.4-1.3,2.1-2.5
		L394,108.8z M390.4,102.5c0-0.6-0.1-1.3-0.2-2s-0.3-1.3-0.5-1.8c-0.3-0.5-0.6-0.9-1-1.2c-0.4-0.3-1-0.5-1.7-0.5
		c-1.2,0-2.1,0.5-2.9,1.5c-0.8,1-1.2,2.3-1.3,4H390.4z"/>
	<path class="st2" d="M413.9,112.3l-5.7,0.4l-0.3-0.2v-1.5l-0.1,0c-0.6,0.6-1.3,1.2-2.1,1.6c-0.8,0.4-1.7,0.6-2.6,0.6
		c-0.9,0-1.8-0.2-2.7-0.6c-0.9-0.4-1.6-1-2.3-1.8c-0.7-0.8-1.2-1.7-1.6-2.8c-0.4-1.1-0.6-2.3-0.6-3.6c0-1.2,0.2-2.3,0.6-3.4
		s1-2,1.7-2.8c0.7-0.7,1.5-1.3,2.5-1.8c1-0.4,2-0.7,3-0.7c0.8,0,1.5,0.1,2.3,0.3c0.7,0.2,1.4,0.4,1.9,0.7v-5.7
		c0-0.5-0.1-0.9-0.2-1.3s-0.4-0.7-0.6-0.9c-0.3-0.2-0.7-0.4-1.3-0.5c-0.5-0.1-1.1-0.2-1.7-0.2v-1l6.7-0.4l0.3,0.2v22.1
		c0,0.4,0.1,0.7,0.2,1c0.1,0.3,0.4,0.5,0.7,0.7c0.2,0.1,0.5,0.2,0.9,0.2c0.4,0,0.8,0.1,1.1,0.1V112.3z M407.9,109.4v-9.6
		c-0.1-0.3-0.2-0.6-0.4-0.9c-0.2-0.3-0.4-0.6-0.7-0.9c-0.3-0.3-0.7-0.5-1.1-0.7c-0.4-0.2-0.9-0.3-1.5-0.3c-0.7,0-1.3,0.2-1.8,0.5
		c-0.6,0.3-1.1,0.8-1.5,1.5c-0.4,0.6-0.7,1.4-1,2.4c-0.2,1-0.4,2-0.4,3.2c0,0.9,0.1,1.8,0.3,2.5c0.2,0.8,0.5,1.5,0.9,2.1
		c0.4,0.6,0.9,1.1,1.5,1.5s1.3,0.6,2.2,0.6c0.9,0,1.6-0.2,2.2-0.6C407,110.3,407.5,109.9,407.9,109.4z"/>
</g>
</svg>
