<?xml version="1.0" encoding="utf-8"?>
<!-- Generator: Adobe Illustrator 19.0.0, SVG Export Plug-In . SVG Version: 6.00 Build 0)  -->
<svg version="1.1" id="图层_1" xmlns="http://www.w3.org/2000/svg" xmlns:xlink="http://www.w3.org/1999/xlink" x="0px" y="0px"
	 viewBox="200 701 600 600" style="enable-background:new 200 701 600 600;" xml:space="preserve">
<style type="text/css">
	.st0{fill:#AAAAAA;}
	.st1{fill:#5D5D5D;}
	.st2{fill:#FFFFFF;}
	.st3{fill:#E5E5E5;}
</style>
<title>no</title>
<g>
	<g>
		<path class="st0" d="M352.2,914.5c12.5-1.5,21.4-13,19.9-25.6c-1.5-12.6-12.9-21.6-25.5-20c-12.5,1.5-21.4,13-19.9,25.6
			C328.3,907.1,339.7,916.1,352.2,914.5z"/>
		<path class="st1" d="M272.3,924.3c1.3-2.3,4.2-3.1,6.5-1.8l34.2,18.9c2.3,1.3,3.1,4.2,1.8,6.5c-1.3,2.3-4.2,3.1-6.5,1.8
			l-34.2-18.9C271.9,929.4,271.1,926.5,272.3,924.3z"/>
		<path class="st1" d="M338.9,776.5c22.8-7.5,48.7,5.8,57.8,29.5c2,5.3-0.5,10.9-5.5,12.5c-5,1.6-10.7-1.3-12.8-6.5
			c-5.1-13.2-19.6-20.6-32.2-16.4c-12.7,4.2-18.9,18.4-13.8,31.6c2,5.3-0.5,10.9-5.5,12.5c-5,1.6-10.8-1.3-12.8-6.5
			C305.1,809.3,316.2,783.9,338.9,776.5L338.9,776.5z"/>
		<path class="st0" d="M267.5,875.8c8.4-1,14.4-8.7,13.4-17.2c-1-8.5-8.7-14.5-17.1-13.4c-8.4,1-14.4,8.7-13.4,17.2
			C251.4,870.8,259.1,876.8,267.5,875.8z"/>
	</g>
	<g>
		<path class="st0" d="M480.4,942.4c-18.2-5.3-37.4,5.1-42.7,23.4l-62,209.3c-2.5,8.6,2.4,17.6,11,20.1c4.1,1.2,8.6,0.7,12.3-1.3
			l60.4-26l202.9,59.3c18.2,5.3,37.4-5.1,42.7-23.4l43.6-147c5.4-18.3-5.1-37.4-23.3-42.7L480.4,942.4L480.4,942.4z"/>
		<path class="st2" d="M554.3,1110.4c12.2,4.9,26.1-0.9,31-13.1c4.9-12.2-0.9-26-13.1-31c0,0,0,0,0,0c-12.2-4.9-26.1,0.9-31,13.1
			C536.3,1091.6,542.1,1105.5,554.3,1110.4C554.3,1110.4,554.3,1110.4,554.3,1110.4L554.3,1110.4z"/>
		<path class="st2" d="M477.7,1088.7c12.2,4.9,26.1-0.9,31-13.1c4.9-12.2-0.9-26-13.1-31c0,0,0,0,0,0c-12.2-4.9-26.1,0.9-31,13.1
			C459.6,1069.9,465.5,1083.8,477.7,1088.7C477.7,1088.7,477.7,1088.7,477.7,1088.7z"/>
		<path class="st2" d="M667.4,1120.5c-4.9,12.2-18.8,18.1-31,13.1c-12.2-4.9-18-18.8-13.1-31c0,0,0,0,0,0
			c4.9-12.2,18.8-18.1,31-13.1C666.4,1094.5,672.3,1108.4,667.4,1120.5C667.4,1120.5,667.4,1120.5,667.4,1120.5z"/>
	</g>
	<g>
		<path class="st3" d="M519.6,841.1l-244.9,71.7c-18.2,5.3-28.7,24.5-23.3,42.7l43.6,147c5.4,18.3,24.5,28.7,42.7,23.4l202.9-59.3
			l60.4,26c3.8,2.1,8.2,2.5,12.3,1.3c8.6-2.5,13.5-11.5,11-20.1l-62-209.3C557,846.2,537.9,835.7,519.6,841.1L519.6,841.1z"/>
		<path class="st2" d="M445.7,1009.1C445.7,1009.1,445.7,1009.1,445.7,1009.1c12.2-5,18-18.8,13.1-31c-4.9-12.2-18.8-18.1-31-13.1
			c0,0,0,0,0,0c-12.2,4.9-18,18.8-13.1,31C419.6,1008.2,433.5,1014.1,445.7,1009.1L445.7,1009.1z"/>
		<path class="st2" d="M522.4,987.4c12.2-4.9,18-18.8,13.1-31c-4.9-12.2-18.8-18.1-31-13.1c0,0,0,0,0,0c-12.2,4.9-18,18.8-13.1,31
			C496.3,986.5,510.1,992.3,522.4,987.4C522.3,987.4,522.3,987.4,522.4,987.4z"/>
		<path class="st2" d="M332.6,1019.2c-4.9-12.2,0.9-26,13.1-31c12.2-4.9,26.1,0.9,31,13.1c0,0,0,0,0,0c4.9,12.2-0.9,26-13.1,31
			C351.5,1037.3,337.6,1031.4,332.6,1019.2C332.6,1019.2,332.6,1019.2,332.6,1019.2z"/>
	</g>
	<path class="st0" d="M634.7,828.8c8.9,0,16.1-7.3,16.2-16.2c0-9-7.2-16.2-16.1-16.2c-8.9,0-16.1,7.3-16.2,16.2
		C618.5,821.5,625.8,828.8,634.7,828.8L634.7,828.8z"/>
	<path class="st1" d="M677.5,942.8c-17-7.5-24.7-27.5-17.2-44.5c1.7-3.8,6-5.5,9.8-3.8c3.7,1.7,5.5,6.1,3.8,9.8
		c-4.2,9.5,0.1,20.7,9.6,24.8c9.4,4.2,20.6-0.1,24.7-9.7c1.7-3.8,6-5.5,9.8-3.8c3.7,1.7,5.5,6.1,3.8,9.8
		C714.3,942.5,694.5,950.3,677.5,942.8z"/>
	<path class="st1" d="M688.4,843.1c-3.6-2.4-4.7-7.5-2.2-11.2l36.5-54.8c2.4-3.6,7.4-4.7,11.2-2.2c3.6,2.4,4.7,7.5,2.2,11.2
		l-36.5,54.8C697.1,844.5,692,845.5,688.4,843.1z"/>
</g>
</svg>
