<?xml version="1.0" encoding="utf-8"?>
<!-- Generator: Adobe Illustrator 23.0.0, SVG Export Plug-In . SVG Version: 6.00 Build 0)  -->
<svg version="1.1" id="图层_1" xmlns="http://www.w3.org/2000/svg" xmlns:xlink="http://www.w3.org/1999/xlink" x="0px" y="0px"
	 viewBox="0 0 50 50" style="enable-background:new 0 0 50 50;" xml:space="preserve">
<style type="text/css">
	.st0{fill:url(#SVGID_1_);}
	.st1{opacity:0.5;}
	.st2{fill:#FFFFFF;}
</style>
<linearGradient id="SVGID_1_" gradientUnits="userSpaceOnUse" x1="51.2997" y1="-668.1216" x2="22.8649" y2="-716.6434" gradientTransform="matrix(1 0 0 -1 0 -688)">
	<stop  offset="0" style="stop-color:#272630"/>
	<stop  offset="1" style="stop-color:#46475B"/>
</linearGradient>
<path class="st0" d="M25,50L25,50C11.2,50,0,38.8,0,25l0,0C0,11.2,11.2,0,25,0l0,0c13.8,0,25,11.2,25,25l0,0C50,38.8,38.8,50,25,50z
	"/>
<g>
	<g class="st1">
		<path class="st2" d="M28.7,36.3h-7.1l0.2-0.8c1.3,0.1,2.1-0.4,2.2-1.3l2.1-9.2c0.3-0.9-0.3-1.3-1.6-1.3l0.2-0.8h7.1l-0.2,0.8
			c-1.3-0.1-2.1,0.4-2.2,1.3l-2.1,9.2c-0.4,0.9,0.3,1.3,1.6,1.3L28.7,36.3L28.7,36.3z"/>
		<path class="st2" d="M39.6,23h-7l-0.2,0.8c1.4-0.1,1.9,0.4,1.6,1.3l-2.1,9.2c-0.1,0.9-0.9,1.3-2.2,1.3l-0.2,0.8h7.1l0.2-0.8
			c-1.5,0.1-2-0.4-1.8-1.4l0.9-3.9h2.2c3-0.2,4.8-1.4,5.5-3.7C44.1,24.2,42.7,23.1,39.6,23z M40.2,26.6c-0.4,1.8-1.5,2.7-3.3,2.7
			h-0.7l0.9-4c0.2-1,0.8-1.4,1.7-1.4C40.1,24,40.6,24.8,40.2,26.6z"/>
	</g>
	<path class="st2" d="M10.6,16.3H8.3c0,0-0.1,0-0.1-0.1v-2.4c0,0,0-0.1,0.1-0.1h7.1c0,0,0.1,0,0.1,0.1v9.9c0,0,0.1,0.1,0.1,0
		l9.5-9.9l0,0h7c0,0,0.1,0.1,0,0.1L10.7,36.2h-0.1V16.3C10.7,16.3,10.6,16.3,10.6,16.3z"/>
</g>
</svg>
