<?xml version="1.0" encoding="utf-8"?>
<!-- Generator: Adobe Illustrator 23.0.0, SVG Export Plug-In . SVG Version: 6.00 Build 0)  -->
<svg version="1.1" id="图层_1" xmlns="http://www.w3.org/2000/svg" xmlns:xlink="http://www.w3.org/1999/xlink" x="0px" y="0px"
	 viewBox="0 0 50 50" style="enable-background:new 0 0 50 50;" xml:space="preserve">
<style type="text/css">
	.st0{fill:url(#SVGID_1_);}
	.st1{fill:#FFFFFF;}
</style>
<linearGradient id="SVGID_1_" gradientUnits="userSpaceOnUse" x1="15.0899" y1="50.8763" x2="64.3943" y2="-77.8629">
	<stop  offset="0" style="stop-color:#43CD66"/>
	<stop  offset="1" style="stop-color:#103928"/>
</linearGradient>
<path class="st0" d="M25,50L25,50C11.2,50,0,38.8,0,25l0,0C0,11.2,11.2,0,25,0l0,0c13.8,0,25,11.2,25,25l0,0C50,38.8,38.8,50,25,50z
	"/>
<path class="st1" d="M25,9.3L25,9.3c8.7,0,15.7,7.1,15.7,15.7S33.7,40.7,25,40.7c-3.2,0-6.2-1-8.7-2.6l-6.1,1.9l2-5.8
	c-2-2.7-3-5.9-3-9.2C9.3,16.3,16.3,9.3,25,9.3z M20.5,17.9c-0.3-0.7-0.5-0.7-1-0.8c-0.2,0-0.3,0-0.5,0c-0.6,0-1.2,0.2-1.6,0.6
	c-0.5,0.5-1.6,1.5-1.6,3.8c0,2.2,1.6,4.4,1.8,4.7c0.2,0.3,3.2,4.9,7.7,6.8c3.6,1.5,4.6,1.3,5.4,1.2c1.2-0.3,2.7-1.1,3-2.2
	c0.4-1.1,0.4-2,0.3-2.1c-0.1-0.2-0.4-0.3-0.9-0.5c-0.5-0.2-2.7-1.3-3.1-1.5c-0.4-0.2-0.8-0.1-1.1,0.3c-0.4,0.6-0.9,1.2-1.2,1.6
	c-0.3,0.3-0.7,0.3-1.1,0.2c-0.5-0.2-1.9-0.7-3.6-2.2c-1.3-1.2-2.3-2.7-2.5-3.1c-0.3-0.5,0-0.7,0.2-1c0.2-0.3,0.4-0.5,0.7-0.7
	c0.2-0.3,0.4-0.4,0.5-0.7c0.2-0.3,0-0.6-0.1-0.8C21.8,21,20.9,18.8,20.5,17.9L20.5,17.9z"/>
</svg>
