<?xml version="1.0" encoding="utf-8"?>
<!-- Generator: Adobe Illustrator 23.0.0, SVG Export Plug-In . SVG Version: 6.00 Build 0)  -->
<svg version="1.1" id="图层_1" xmlns="http://www.w3.org/2000/svg" xmlns:xlink="http://www.w3.org/1999/xlink" x="0px" y="0px"
	 viewBox="0 0 50 50" style="enable-background:new 0 0 50 50;" xml:space="preserve">
<style type="text/css">
	.st0{clip-path:url(#SVGID_2_);fill:#EC6755;}
	.st1{fill:#FFFFFF;}
	.st2{fill:#EC6755;}
</style>
<g>
	<defs>
		<path id="SVGID_1_" d="M25,50L25,50C11.2,50,0,38.8,0,25l0,0C0,11.2,11.2,0,25,0l0,0c13.8,0,25,11.2,25,25l0,0
			C50,38.8,38.8,50,25,50z"/>
	</defs>
	<clipPath id="SVGID_2_">
		<use xlink:href="#SVGID_1_"  style="overflow:visible;"/>
	</clipPath>
	<path class="st0" d="M25,50L25,50C11.2,50,0,38.8,0,25l0,0C0,11.2,11.2,0,25,0l0,0c13.8,0,25,11.2,25,25l0,0C50,38.8,38.8,50,25,50
		z"/>
</g>
<path class="st1" d="M34.4,10.4H15.7c-2.7,0-5,2.2-5,5v18.8c0,2.7,2.2,5,5,5h18c3.2,0,5.7-2.6,5.7-5.7v-18
	C39.4,12.6,37.1,10.4,34.4,10.4z M14.8,16.2h20.5c0.8,0,1.5,0.7,1.5,1.5c0,0.8-0.7,1.5-1.5,1.5H14.8c-0.8,0-1.5-0.7-1.5-1.5
	C13.3,16.9,14,16.2,14.8,16.2z M17.3,26.3h-2.5c-0.8,0-1.5-0.7-1.5-1.5c0-0.8,0.7-1.5,1.5-1.5h2.5c0.8,0,1.5,0.7,1.5,1.5
	C18.8,25.6,18.1,26.3,17.3,26.3z M24.4,26.3h-2.5c-0.8,0-1.5-0.7-1.5-1.5c0-0.8,0.7-1.5,1.5-1.5h2.5c0.8,0,1.5,0.7,1.5,1.5
	C25.9,25.6,25.2,26.3,24.4,26.3z"/>
<path class="st1" d="M24.2,32.6c0,4.8,3.9,8.7,8.7,8.7s8.7-3.9,8.7-8.7c0,0,0,0,0,0c0-4.8-3.9-8.7-8.7-8.7S24.2,27.7,24.2,32.6z"/>
<path class="st2" d="M39.4,33.6v-7c-1.6-1.7-3.9-2.8-6.4-2.8c-4.8,0-8.7,3.9-8.7,8.7c0,2.6,1.1,4.9,3,6.5h6.7
	C36.9,39.1,39.4,36.7,39.4,33.6L39.4,33.6z"/>
<path class="st1" d="M18.6,14c-0.8,0-1.5-0.7-1.5-1.5V9.1c0-0.8,0.7-1.5,1.5-1.5c0.8,0,1.5,0.7,1.5,1.5v3.5C20,13.3,19.4,14,18.6,14
	z M31.6,14c-0.8,0-1.5-0.7-1.5-1.5V9.1c0-0.8,0.7-1.5,1.5-1.5s1.5,0.7,1.5,1.5v3.5C33.1,13.3,32.4,14,31.6,14z"/>
<path class="st2" d="M17.1,10.4v2.1c0,0.8,0.7,1.5,1.5,1.5c0.8,0,1.5-0.7,1.5-1.5v-2.1H17.1z M30.2,10.4v2.1c0,0.8,0.7,1.5,1.5,1.5
	s1.5-0.7,1.5-1.5v-2.1H30.2z"/>
<path class="st1" d="M37.6,31.1C37.6,31.1,37.6,31.1,37.6,31.1L33,36.1c-0.3,0.3-0.7,0.5-1.1,0.5h0c-0.4,0-0.8-0.2-1.1-0.5l-2.4-2.5
	c-0.6-0.6-0.6-1.6,0-2.2c0,0,0,0,0,0c0.6-0.6,1.6-0.6,2.2,0c0,0,0,0,0,0l1.3,1.4l3.5-3.9c0.6-0.6,1.5-0.7,2.2-0.1c0,0,0,0,0,0
	C38.1,29.5,38.2,30.4,37.6,31.1z"/>
</svg>
