<?xml version="1.0" encoding="utf-8"?>
<!-- Generator: Adobe Illustrator 23.0.0, SVG Export Plug-In . SVG Version: 6.00 Build 0)  -->
<svg version="1.1" id="图层_1" xmlns="http://www.w3.org/2000/svg" xmlns:xlink="http://www.w3.org/1999/xlink" x="0px" y="0px"
	 viewBox="0 0 50 50" style="enable-background:new 0 0 50 50;" xml:space="preserve">
<style type="text/css">
	.st0{fill:#548736;}
	.st1{fill:#FFFFFF;}
	.st2{opacity:0.3;fill:#548736;}
</style>
<path class="st0" d="M25,50L25,50C11.2,50,0,38.8,0,25l0,0C0,11.2,11.2,0,25,0l0,0c13.8,0,25,11.2,25,25l0,0C50,38.8,38.8,50,25,50z
	"/>
<g>
	<path class="st1" d="M9.7,26.6c0,4.6,3.7,8.3,8.3,8.3s8.3-3.7,8.3-8.3s-3.7-8.3-8.3-8.3S9.7,22,9.7,26.6L9.7,26.6z"/>
	<path class="st1" d="M29,15.6c0,3.1,2.5,5.6,5.6,5.6s5.6-2.5,5.6-5.6s-2.5-5.6-5.6-5.6C31.5,10.1,29,12.6,29,15.6z"/>
	<path class="st1" d="M29.5,34.5c0,3,2.4,5.4,5.4,5.4s5.4-2.4,5.4-5.4s-2.4-5.4-5.4-5.4S29.5,31.6,29.5,34.5z"/>
	<path class="st1" d="M33.2,35.5c-0.2,0-0.4-0.1-0.6-0.1l-13.2-6.3c-0.9-0.4-1.5-1.3-1.6-2.3c-0.1-1,0.4-2,1.2-2.6l13.8-9.2
		c0.6-0.4,1.5-0.3,1.9,0.4l0,0c0.4,0.6,0.3,1.5-0.4,1.9l0,0l-13.8,9.2c0,0,0,0,0,0l13.2,6.3c0.7,0.3,1,1.2,0.7,1.9
		C34.2,35.1,33.7,35.5,33.2,35.5L33.2,35.5z"/>
	<path class="st2" d="M32.9,14.9l-3.6,2.4c0.3,0.9,0.8,1.7,1.5,2.3l3.7-2.4c0.6-0.4,0.8-1.3,0.4-1.9l0,0
		C34.4,14.7,33.6,14.5,32.9,14.9z M33.8,32.8l-3.2-1.5c-0.6,0.7-0.9,1.6-1.1,2.6l3,1.5c0.2,0.1,0.4,0.1,0.6,0.1c0.5,0,1-0.3,1.3-0.8
		C34.8,34,34.5,33.1,33.8,32.8L33.8,32.8z M25.9,29l-5.2-2.5c0,0,0,0,0,0l4.9-3.3c-0.4-0.9-0.9-1.6-1.5-2.3l-4.9,3.3
		c-0.9,0.6-1.3,1.5-1.2,2.6c0.1,1,0.7,1.9,1.6,2.3l5.2,2.5C25.2,30.8,25.6,29.9,25.9,29L25.9,29z"/>
</g>
</svg>
