<?xml version="1.0" encoding="utf-8"?>
<!-- Generator: Adobe Illustrator 23.0.0, SVG Export Plug-In . SVG Version: 6.00 Build 0)  -->
<svg version="1.1" id="图层_1" xmlns="http://www.w3.org/2000/svg" xmlns:xlink="http://www.w3.org/1999/xlink" x="0px" y="0px"
	 viewBox="0 0 200 200" style="enable-background:new 0 0 200 200;" xml:space="preserve">
<style type="text/css">
	.st0{clip-path:url(#SVGID_2_);fill:#FF716E;}
	.st1{clip-path:url(#SVGID_2_);fill:#FF5C64;}
	.st2{clip-path:url(#SVGID_2_);fill:#FC4956;}
	.st3{clip-path:url(#SVGID_2_);fill:#F23D4F;}
	.st4{clip-path:url(#SVGID_2_);}
	.st5{fill:#FFFFFF;}
</style>
<g>
	<defs>
		<path id="SVGID_1_" d="M180.9,116.6c-0.6-6.3-2.5-12.2-5-17.8c-4.1-9.4-9.9-18.3-13.7-27.6c-2.1-5.1-3.6-10.4-3.9-15.9
			c-3.1,5.6-4.8,10.3-5.9,15c-1.2,5.3-1.6,10.5-2,16.9c-4.3-5.3-8.6-11-12.7-16.9c-15-21.7-27.1-46.8-23.3-70.2
			c0,0-38.1,11.3-53.5,70.7C51.2,62.8,51.9,46,56.7,36C47.5,42.4-0.8,97.7,27,150.9c3.9,7.4,9.2,14.8,16.3,21.9
			c2.3,2.3,4.9,4.8,7.9,7.2c9.8,8.2,22.8,16.3,38.7,19c4,0.7,8.1,1,12.5,1h0.1c1.9,0.1,37.3,0.4,65.8-33.2
			c10.4-14.9,13.4-24.3,13.3-37.6C181.6,125.4,181.3,121.3,180.9,116.6z"/>
	</defs>
	<clipPath id="SVGID_2_">
		<use xlink:href="#SVGID_1_"  style="overflow:visible;"/>
	</clipPath>
	<path class="st0" d="M188.4,118.2C186.3,93.7,165.2,75,163.7,51c-7.1,13.1-7.9,21.8-8.6,34.9c-21.8-27-44.6-62.6-39.4-95.3
		c0,0-41.6,12.4-58.5,77.3c-10.5-8.6-9.8-27-4.5-37.9C41.2,38-25.8,115.3,38,179.6c13.2,13.1,35.3,30.3,64.6,29.7h0.2
		c2.1,0.1,40.7,0.5,71.9-36.3C189.2,152,190.5,141.1,188.4,118.2z"/>
	<path class="st1" d="M193.1,128.4c0,15.2-3.4,26-15.3,43.2c-32.8,38.6-73.3,38.2-75.6,38.1H102c-5,0.1-9.8-0.3-14.4-1.1
		c-18.2-3.1-33.2-12.5-44.5-21.9c-3.3-2.8-6.4-5.6-9-8.3c-8.2-8.2-14.3-16.7-18.7-25.2c20.1-51.8,69.1-89.3,127.2-92.7
		c2.8-0.2,5.7-0.2,8.5-0.2c2.8,0,5.6,0.1,8.3,0.2c3.8,0.2,7.6,0.6,11.3,1.1c4.4,10.8,11,20.9,15.7,31.7c2.9,6.5,5.1,13.3,5.8,20.5
		C192.7,119.2,193.1,124,193.1,128.4z"/>
	<path class="st2" d="M193.1,128.4c0,15.2-3.4,26-15.3,43.2c-32.8,38.6-73.3,38.2-75.6,38.1H102c-5,0.1-9.8-0.3-14.4-1.1
		c-18.2-3.1-33.2-12.5-44.5-21.9c20.9-54.7,73.9-93.5,135.9-93.5c2.5,0,4.9,0.1,7.4,0.2c2.9,6.5,5.1,13.3,5.8,20.5
		C192.7,119.2,193.1,124,193.1,128.4z"/>
	<path class="st3" d="M193.1,128.4c0,15.2-3.4,26-15.3,43.2c-32.8,38.6-73.3,38.2-75.6,38.1H102c-5,0.1-9.8-0.3-14.4-1.1
		C107.6,167.2,146.5,136.7,193.1,128.4z"/>
	<g class="st4">
		<path class="st5" d="M75.5,158.3c0,1.9-1.5,3.4-3.4,3.4h0h-4.5c-1.9,0-3.4-1.5-3.4-3.4c0,0,0,0,0,0v-18.5H41.6v18.5
			c0,1.9-1.5,3.4-3.4,3.4c0,0,0,0,0,0h-4.5c-1.9,0-3.4-1.5-3.4-3.4l0,0v-46.9c0-1.5,1.2-2.8,2.8-2.8h0h5.8c1.5,0,2.8,1.2,2.8,2.8
			c0,0,0,0,0,0V130h22.6v-18.6c0-1.5,1.2-2.8,2.8-2.8c0,0,0,0,0,0h5.8c1.5,0,2.8,1.2,2.8,2.8l0,0V158.3z"/>
		<path class="st5" d="M178.9,115.8c0,1.2-0.9,2.1-2.1,2.1h0h-13v40.9c0,1.6-1.3,2.9-2.9,2.9h0h-5.5c-1.6,0-2.9-1.3-2.9-2.9v0v-40.9
			H140c-1.5,0-2.7-1.2-2.7-2.7l0,0v-3.9c0-1.5,1.2-2.7,2.7-2.7c0,0,0,0,0,0h36.8c1.2,0,2.1,0.9,2.1,2.1c0,0,0,0,0,0L178.9,115.8z"/>
		<path class="st5" d="M129.4,115.3c-4.6-5-10.7-7.6-18.3-7.6c-8,0-14.4,2.6-19.2,7.8c-4.9,5.2-7.3,12-7.3,20.3
			c0,7.9,2.4,14.3,7.1,19.3c4.8,5,10.9,7.5,18.5,7.5c7.8,0,14.1-2.6,18.9-7.7c4.8-5.1,7.2-11.9,7.2-20.1
			C136.3,126.8,134,120.4,129.4,115.3z M120.8,148.1c-2.5,3.1-5.9,4.7-10.3,4.7c-4.4,0-7.8-1.7-10.3-4.9c-2.5-3.3-3.7-7.5-3.7-12.6
			c0-5.2,1.3-9.5,3.8-12.8c2.5-3.3,6-4.9,10.5-4.9c4.4,0,7.7,1.6,10.1,4.8c2.4,3.2,3.6,7.6,3.6,13.1
			C124.5,140.7,123.2,145,120.8,148.1z"/>
	</g>
</g>
</svg>
