<?xml version="1.0" standalone="no"?><!DOCTYPE svg PUBLIC "-//W3C//DTD SVG 1.1//EN" "http://www.w3.org/Graphics/SVG/1.1/DTD/svg11.dtd"><svg class="icon" width="200px" height="200.00px" viewBox="0 0 1024 1024" version="1.1" xmlns="http://www.w3.org/2000/svg"><path d="M752.0768 773.3248H154.7776c-57.9584 0-104.9088-46.9504-104.9088-104.9088V250.7776c0-57.9584 46.9504-104.9088 104.9088-104.9088H752.128c57.9584 0 104.9088 46.9504 104.9088 104.9088v417.6384c-0.0512 57.9584-47.0016 104.9088-104.96 104.9088z" fill="#4BE2AC" /><path d="M868.7104 883.0464H294.1952c-57.9584 0-104.9088-46.9504-104.9088-104.9088V360.448c0-57.9584 46.9504-104.9088 104.9088-104.9088h574.5152c57.9584 0 104.9088 46.9504 104.9088 104.9088v417.6384c0 58.0096-46.9504 104.96-104.9088 104.96z" fill="#4BE2AC" /><path d="M294.1952 255.5904c-57.9584 0-104.9088 46.9504-104.9088 104.9088v412.8768h562.7904c57.9584 0 104.9088-46.9504 104.9088-104.9088V255.5904H294.1952z" fill="#06CC76" /><path d="M435.712 460.288c14.4896-20.2752 23.0912-45.1072 23.0912-71.8848 0-68.352-55.6032-123.9552-123.9552-123.9552S210.8416 320 210.8416 388.352c0 26.7776 8.5504 51.6096 23.0912 71.8848-51.2 33.1776-85.1968 90.7776-85.1968 156.2112 0 22.6304 18.3296 40.96 40.96 40.96s40.96-18.3296 40.96-40.96c0-57.4464 46.7456-104.1408 104.1408-104.1408s104.1408 46.6944 104.1408 104.1408c0 22.6304 18.3296 40.96 40.96 40.96s40.96-18.3296 40.96-40.96c0.0512-65.3824-33.9456-122.9824-85.1456-156.16zM292.7616 388.352c0-23.1936 18.8416-42.0352 42.0352-42.0352s42.0352 18.8416 42.0352 42.0352-18.8416 42.0352-42.0352 42.0352-42.0352-18.8416-42.0352-42.0352zM706.2016 346.3168h-153.9072c-22.6304 0-40.96-18.3296-40.96-40.96s18.3296-40.96 40.96-40.96h153.9072c22.6304 0 40.96 18.3296 40.96 40.96s-18.3296 40.96-40.96 40.96zM706.2016 466.2272h-101.9392c-22.6304 0-40.96-18.3296-40.96-40.96s18.3296-40.96 40.96-40.96h101.9392c22.6304 0 40.96 18.3296 40.96 40.96s-18.3296 40.96-40.96 40.96zM706.2016 584.8576h-59.8016c-22.6304 0-40.96-18.3296-40.96-40.96s18.3296-40.96 40.96-40.96h59.8016c22.6304 0 40.96 18.3296 40.96 40.96s-18.3296 40.96-40.96 40.96z" fill="#FFFFFF" /></svg>