<?xml version="1.0" encoding="utf-8"?>
<!-- Generator: Adobe Illustrator 23.0.0, SVG Export Plug-In . SVG Version: 6.00 Build 0)  -->
<svg version="1.1" id="图层_1" xmlns="http://www.w3.org/2000/svg" xmlns:xlink="http://www.w3.org/1999/xlink" x="0px" y="0px"
	 viewBox="0 0 200 200" style="enable-background:new 0 0 200 200;" xml:space="preserve">
<style type="text/css">
	.st0{fill:#FFAC3E;}
	.st1{fill:#FF7C0E;}
	.st2{fill:#FFFFFF;}
</style>
<g>
	<path class="st0" d="M140.4,145.2H30.6c-2.5,0-4.5,2-4.5,4.5v17.4c0,2.5,2,4.5,4.5,4.5h109.8c2,0,3.7-1.3,4.3-3.2
		c0.1-0.4,0.2-0.8,0.2-1.3v-17.4C144.9,147.2,142.9,145.2,140.4,145.2z M140.4,106H30.6c-2.5,0-4.5,2-4.5,4.5v17.4
		c0,2.5,2,4.5,4.5,4.5h109.8c2.5,0,4.5-2,4.5-4.5v-17.4C144.9,108,142.9,106,140.4,106z M152,66.8H42.1c-2.5,0-4.5,2-4.5,4.5v17.4
		c0,2.5,2,4.5,4.5,4.5H152c2.5,0,4.5-2,4.5-4.5V71.3C156.4,68.8,154.4,66.8,152,66.8z M126.9,27.6H17.1c-2.5,0-4.5,2-4.5,4.5v17.4
		c0,2.5,2,4.5,4.5,4.5h109.8c2.5,0,4.5-2,4.5-4.5V32C131.4,29.6,129.4,27.6,126.9,27.6z"/>
	<path class="st0" d="M182.7,146.3l-30.6,23.6c-4.3,3.3-10.4,3.3-14.7,0l-30.6-23.6c-3-2.3-4.7-5.8-4.7-9.6V92.1
		c0-3.8,2.5-7.2,6.1-8.4L142,72.6c1.8-0.6,3.7-0.6,5.5,0l33.8,11.1c3.7,1.2,6.1,4.6,6.1,8.4v44.7C187.4,140.5,185.7,144,182.7,146.3
		L182.7,146.3z"/>
	<path class="st1" d="M144.9,110.5v17.4c0,2.5-2,4.5-4.5,4.5h-38.3V106h38.3C142.9,106,144.9,108,144.9,110.5z"/>
	<path class="st1" d="M144.9,149.7v17.4c0,0.5-0.1,0.9-0.2,1.3c-1.8,1.1-3.8,1.9-5.8,2.4c-0.5-0.3-1-0.6-1.5-1l-30.6-23.6
		c-0.4-0.3-0.8-0.7-1.2-1.1h34.8C142.9,145.2,144.9,147.2,144.9,149.7z"/>
	<path class="st1" d="M156.4,75.5v13.2c0,2.5-2,4.5-4.5,4.5h-49.8v-1.1c0-3.8,2.5-7.2,6.1-8.4L142,72.6c1.8-0.6,3.7-0.6,5.5,0
		L156.4,75.5z"/>
	<path class="st2" d="M142.2,138.4c-2,0-4-0.8-5.4-2.3l-13.2-13.7c-2.9-3-2.8-7.7,0.2-10.6c3-2.9,7.7-2.8,10.6,0.2l7.5,7.8
		l15.6-17.7c2.7-3.1,7.5-3.4,10.6-0.7c0,0,0,0,0,0c3.1,2.7,3.4,7.5,0.7,10.6c0,0,0,0,0,0l-20.9,23.8c-1.4,1.6-3.4,2.5-5.5,2.5
		L142.2,138.4L142.2,138.4z"/>
</g>
</svg>
